<svg width="661" height="510" viewBox="0 0 661 510" fill="none" xmlns="http://www.w3.org/2000/svg">
<rect width="661" height="510" fill="#F4F9FD"/>
<path d="M449.97 324.415H522.234V268.679H449.97V324.415Z" fill="#EBEBEB"/>
<path d="M455.136 319.551H463.844V309.708H455.136V319.551Z" fill="white"/>
<path d="M500.188 268.823H491.98V280.716H500.188V268.823Z" fill="#FAFAFA"/>
<path d="M500.188 312.357H491.98V324.25H500.188V312.357Z" fill="#FAFAFA"/>
<path d="M468.007 324.799C467.88 324.799 467.777 312.54 467.777 297.422C467.777 282.299 467.88 270.043 468.007 270.043C468.134 270.043 468.237 282.299 468.237 297.422C468.237 312.54 468.134 324.799 468.007 324.799Z" fill="#E0E0E0"/>
<path d="M420.496 420.398H545.18V324.231H420.496V420.398Z" fill="#EBEBEB"/>
<path d="M429.409 412.005H444.433V395.021H429.409V412.005Z" fill="white"/>
<path d="M507.143 324.479H492.98V344.999H507.143V324.479Z" fill="#FAFAFA"/>
<path d="M507.143 399.593H492.98V420.113H507.143V399.593Z" fill="#FAFAFA"/>
<path d="M451.617 421.06C451.397 421.06 451.219 399.909 451.219 373.824C451.219 347.73 451.397 326.583 451.617 326.583C451.837 326.583 452.014 347.729 452.014 373.824C452.014 399.909 451.836 421.06 451.617 421.06Z" fill="#E0E0E0"/>
<path d="M541.219 124.211L547.898 137.744L562.833 139.915L552.026 150.449L554.577 165.324L541.219 158.301L527.861 165.324L530.412 150.449L519.605 139.915L534.54 137.744L541.219 124.211Z" fill="#EBEBEB"/>
<path d="M143.509 298.967L147.719 307.496L157.131 308.864L150.32 315.503L151.928 324.877L143.509 320.451L135.091 324.877L136.698 315.503L129.888 308.864L139.3 307.496L143.509 298.967Z" fill="#EBEBEB"/>
<path d="M148.732 224.661L158.079 243.601L178.98 246.638L163.856 261.38L167.426 282.196L148.732 272.368L130.038 282.196L133.609 261.38L118.485 246.638L139.385 243.601L148.732 224.661Z" fill="#EBEBEB"/>
<path d="M535.271 185.324L539.3 193.487L548.308 194.796L541.79 201.15L543.329 210.122L535.271 205.886L527.214 210.122L528.753 201.15L522.234 194.796L531.242 193.487L535.271 185.324Z" fill="#EBEBEB"/>
<path d="M403.049 53.068L407.077 61.231L416.086 62.54L409.567 68.895L411.106 77.867L403.049 73.631L394.991 77.867L396.53 68.895L390.012 62.54L399.02 61.231L403.049 53.068Z" fill="#EBEBEB"/>
<path d="M495.224 140.409L497.861 145.752L503.757 146.609L499.49 150.768L500.497 156.64L495.224 153.867L489.95 156.64L490.957 150.768L486.691 146.609L492.587 145.752L495.224 140.409Z" fill="#EBEBEB"/>
<path d="M251.924 410.108L257.06 420.514L268.544 422.183L260.234 430.283L262.196 441.721L251.924 436.321L241.652 441.721L243.614 430.283L235.304 422.183L246.788 420.514L251.924 410.108Z" fill="#EBEBEB"/>
<path d="M265.481 399.764L267.603 404.064L272.348 404.753L268.915 408.1L269.725 412.826L265.481 410.594L261.237 412.826L262.048 408.1L258.615 404.753L263.359 404.064L265.481 399.764Z" fill="#EBEBEB"/>
<path d="M455.135 359.92L459.651 369.07L469.748 370.537L462.442 377.659L464.167 387.716L455.135 382.967L446.104 387.716L447.829 377.659L440.523 370.537L450.62 369.07L455.135 359.92Z" fill="#FF725E"/>
<path d="M476.678 351.811L478.806 356.122L483.564 356.814L480.121 360.17L480.934 364.908L476.678 362.671L472.423 364.908L473.235 360.17L469.792 356.814L474.55 356.122L476.678 351.811Z" fill="#FF725E"/>
<path d="M448.442 113.66L451.973 102.601C449.224 97.088 447.918 90.773 448.514 84.191C450.226 65.26 466.982 51.304 485.938 53.019C504.896 54.733 518.875 71.469 517.163 90.4C515.451 109.33 498.695 123.286 479.738 121.572C471.822 120.856 465.303 117.99 459.903 112.97L448.442 113.66Z" fill="#FAFAFA"/>
<path d="M448.442 113.66C448.442 113.66 448.708 113.633 449.205 113.596C449.719 113.559 450.452 113.506 451.409 113.438C453.351 113.305 456.197 113.11 459.896 112.857L459.944 112.854L459.98 112.887C463.237 115.894 468.21 119.231 474.936 120.653C476.604 121.011 478.363 121.29 480.197 121.404C481.115 121.439 482.048 121.474 482.997 121.509C483.945 121.502 484.907 121.403 485.885 121.353C489.78 120.991 493.866 119.943 497.787 118.027C501.705 116.12 505.45 113.35 508.581 109.776C511.704 106.208 514.242 101.844 515.656 96.955C517.062 92.074 517.419 86.723 516.506 81.445C516.348 80.111 515.927 78.826 515.592 77.514C515.446 76.851 515.165 76.229 514.936 75.588C514.692 74.953 514.468 74.307 514.205 73.677C513.029 71.213 511.736 68.746 509.977 66.575C509.182 65.429 508.196 64.449 507.27 63.428C506.826 62.898 506.272 62.481 505.773 62.01C505.256 61.56 504.769 61.075 504.23 60.657L502.586 59.444L501.766 58.841L500.895 58.32L499.16 57.282C498.576 56.95 497.952 56.697 497.353 56.401C492.516 54.132 487.268 53.03 482.194 53.14C477.117 53.24 472.24 54.478 467.974 56.54C463.699 58.598 460.035 61.463 457.153 64.724C454.263 67.986 452.159 71.637 450.777 75.292C450.612 75.753 450.448 76.209 450.286 76.663C450.113 77.114 449.962 77.566 449.864 78.032C449.635 78.952 449.41 79.858 449.188 80.749C448.943 82.567 448.609 84.314 448.574 86.024C448.298 92.878 450.105 98.562 452.074 102.55L452.095 102.592L452.081 102.635C450.912 106.198 450.012 108.938 449.398 110.808C449.092 111.729 448.858 112.434 448.694 112.928C448.534 113.407 448.442 113.66 448.442 113.66C448.442 113.66 448.503 113.432 448.645 112.962C448.795 112.471 449.01 111.771 449.291 110.857C449.88 108.96 450.743 106.18 451.865 102.566L451.872 102.651C449.851 98.657 447.987 92.935 448.229 86.011C448.255 84.284 448.583 82.517 448.824 80.678C449.044 79.777 449.267 78.86 449.495 77.928C449.592 77.457 449.743 76.998 449.916 76.542C450.079 76.083 450.243 75.62 450.408 75.153C451.791 71.45 453.908 67.746 456.826 64.433C459.735 61.122 463.441 58.209 467.77 56.113C472.091 54.014 477.036 52.748 482.187 52.641C487.334 52.523 492.661 53.634 497.573 55.935C498.181 56.234 498.814 56.491 499.407 56.828L501.17 57.88L502.055 58.409L502.888 59.02L504.558 60.251C505.105 60.675 505.6 61.167 506.125 61.624C506.631 62.102 507.193 62.525 507.645 63.063C508.585 64.099 509.585 65.095 510.393 66.258C512.177 68.463 513.492 70.966 514.683 73.469C514.95 74.109 515.177 74.765 515.425 75.41C515.658 76.06 515.942 76.692 516.09 77.365C516.43 78.696 516.855 80.002 517.016 81.356C517.939 86.715 517.571 92.144 516.137 97.095C514.695 102.054 512.113 106.477 508.939 110.088C505.757 113.705 501.954 116.502 497.981 118.422C494.004 120.35 489.864 121.398 485.922 121.748C484.933 121.795 483.959 121.891 483.001 121.893C482.042 121.853 481.099 121.813 480.171 121.774C478.32 121.65 476.547 121.36 474.864 120.99C468.078 119.519 463.076 116.11 459.829 113.052L459.912 113.082C456.175 113.277 453.3 113.427 451.338 113.53C450.394 113.576 449.67 113.611 449.163 113.636C448.675 113.657 448.442 113.66 448.442 113.66Z" fill="#263238"/>
<path d="M463.306 85.996L468.978 81.085L478.531 90.889L499.948 73.053L504.481 78.697L477.042 101.04L463.306 85.996Z" fill="#FF725E"/>
<path d="M389.111 359.494L197.349 402.23C192.694 403.267 188.08 400.335 187.043 395.68L124.809 116.432C123.772 111.777 126.704 107.163 131.359 106.126L323.122 63.39C327.777 62.353 332.391 65.285 333.428 69.94L395.661 349.189C396.699 353.843 393.766 358.457 389.111 359.494Z" fill="#E0E0E0"/>
<path d="M389.111 359.494C389.111 359.494 389.324 359.428 389.747 359.307C390.168 359.182 390.784 358.943 391.544 358.524C392.288 358.082 393.164 357.42 393.967 356.414C394.755 355.409 395.467 354.039 395.72 352.365C395.864 351.532 395.847 350.625 395.699 349.695C395.542 348.765 395.286 347.794 395.068 346.771C394.609 344.727 394.108 342.491 393.564 340.069C392.479 335.224 391.227 329.635 389.817 323.344C384.191 298.17 376.051 261.747 365.992 216.742C360.969 194.237 355.466 169.586 349.56 143.123C346.608 129.891 343.554 116.206 340.409 102.11C338.837 95.062 337.242 87.911 335.624 80.662C334.811 77.041 333.994 73.395 333.17 69.725C332.734 67.932 331.649 66.32 330.203 65.168C328.736 64.042 326.9 63.371 325.032 63.378C324.096 63.374 323.187 63.558 322.249 63.779C321.316 63.987 320.382 64.195 319.446 64.404C317.575 64.821 315.698 65.24 313.815 65.66C310.05 66.5 306.263 67.344 302.453 68.194C294.834 69.893 287.129 71.611 279.341 73.348C263.765 76.821 247.861 80.367 231.671 83.977C199.29 91.195 165.763 98.668 131.425 106.322C129.323 106.783 127.429 108.075 126.243 109.861C125.042 111.636 124.564 113.874 124.939 115.976C125.844 120.232 126.825 124.495 127.76 128.733C129.65 137.214 131.527 145.639 133.391 154.002C137.118 170.729 140.79 187.211 144.398 203.405C151.612 235.795 158.571 267.038 165.2 296.8C171.826 326.563 178.122 354.845 184.015 381.314C184.751 384.623 185.481 387.903 186.205 391.154C186.574 392.775 186.911 394.41 187.302 395.998C187.707 397.567 188.595 398.99 189.779 400.068C190.966 401.15 192.458 401.869 194.022 402.148C194.807 402.279 195.604 402.298 196.391 402.222C197.17 402.119 197.955 401.928 198.739 401.754C201.872 401.057 204.974 400.367 208.046 399.683C220.332 396.95 232.123 394.326 243.377 391.823C288.394 381.819 324.823 373.723 350.002 368.128C362.59 365.34 372.364 363.175 378.995 361.706C382.308 360.977 384.835 360.421 386.537 360.046C388.238 359.674 389.111 359.494 389.111 359.494C389.111 359.494 388.244 359.702 386.548 360.087C384.848 360.471 382.324 361.04 379.015 361.787C372.388 363.273 362.619 365.463 350.038 368.284C324.867 373.91 288.447 382.049 243.442 392.107C232.19 394.619 220.401 397.251 208.117 399.993C205.046 400.679 201.944 401.371 198.812 402.07C198.03 402.243 197.25 402.436 196.43 402.545C195.612 402.625 194.784 402.606 193.968 402.47C192.342 402.181 190.792 401.435 189.558 400.312C188.326 399.193 187.403 397.713 186.981 396.083C186.582 394.467 186.249 392.853 185.878 391.226C185.152 387.975 184.421 384.695 183.682 381.387C177.778 354.921 171.469 326.642 164.83 296.882C158.194 267.122 151.227 235.88 144.005 203.492C140.395 187.298 136.721 170.816 132.992 154.09C131.128 145.727 129.25 137.302 127.36 128.821C126.423 124.574 125.448 120.34 124.535 116.045C124.142 113.84 124.644 111.49 125.903 109.63C127.146 107.757 129.137 106.4 131.339 105.918C165.678 98.267 199.205 90.796 231.587 83.581C247.778 79.974 263.683 76.432 279.26 72.962C287.048 71.228 294.755 69.511 302.374 67.814C306.184 66.966 309.971 66.122 313.737 65.283C315.62 64.864 317.497 64.446 319.368 64.029C320.304 63.821 321.238 63.613 322.171 63.405C323.091 63.188 324.065 62.99 325.039 62.996C326.992 62.989 328.911 63.691 330.442 64.868C331.954 66.071 333.086 67.758 333.541 69.63C334.364 73.304 335.181 76.954 335.993 80.579C337.607 87.829 339.199 94.98 340.769 102.029C343.907 116.127 346.954 129.814 349.9 143.047C355.789 169.514 361.275 194.169 366.283 216.677C376.287 261.694 384.383 298.126 389.979 323.307C391.374 329.602 392.614 335.194 393.689 340.041C394.225 342.464 394.721 344.701 395.173 346.747C395.388 347.773 395.639 348.737 395.795 349.679C395.941 350.619 395.954 351.536 395.806 352.377C395.544 354.067 394.819 355.445 394.02 356.453C393.205 357.462 392.32 358.122 391.568 358.56C390.801 358.975 390.18 359.208 389.756 359.327C389.328 359.442 389.111 359.494 389.111 359.494Z" fill="#263238"/>
<g opacity="0.3">
<path d="M207.073 392.344L381.794 352.403L376.266 318.156L366.364 298.967L199.224 364.618L207.073 392.344Z" fill="black"/>
</g>
<g opacity="0.3">
<path d="M280.016 73.631L286.625 84.544L287.914 90.326L283.427 91.326L280.016 73.631Z" fill="black"/>
</g>
<path d="M134.764 118.05L195.381 390.052L385.392 347.706L374.553 299.069L324.774 75.705L134.764 118.05Z" fill="white"/>
<path d="M134.764 118.05C136.118 117.747 209.254 101.381 324.738 75.54L324.903 75.503L324.94 75.668C341.797 151.257 362.834 245.587 385.592 347.639L385.597 347.661L385.643 347.865L385.439 347.911C317.508 363.043 253.006 377.412 195.425 390.238L195.238 390.28L195.197 390.094C159.514 229.469 135.132 119.707 134.764 118.05C135.134 119.705 159.667 229.435 195.568 390.01L195.34 389.865C252.919 377.027 317.418 362.647 385.346 347.501L385.187 347.751L385.182 347.729C362.453 245.671 341.444 151.335 324.609 75.741L324.811 75.869C209.282 101.511 136.117 117.75 134.764 118.05Z" fill="#263238"/>
<path d="M284.452 93.535L188.312 114.961L183.474 93.25C182.714 89.84 184.862 86.46 188.272 85.7L272.064 67.026C275.474 66.266 278.854 68.414 279.614 71.824L284.452 93.535Z" fill="#263238"/>
<path d="M240.066 63.15L215.596 68.603L223.131 88.94L241.562 84.832L240.066 63.15Z" fill="#263238"/>
<path d="M272.062 67.027C272.087 67.138 253.349 71.409 230.215 76.565C207.073 81.722 188.299 85.812 188.274 85.7C188.249 85.589 206.983 81.319 230.125 76.161C253.259 71.006 272.037 66.916 272.062 67.027Z" fill="#455A64"/>
<path d="M189.462 109.983C189.351 110.008 188.381 106.084 187.297 101.219C186.212 96.353 185.424 92.389 185.535 92.364C185.646 92.339 186.616 96.263 187.7 101.129C188.784 105.994 189.573 109.958 189.462 109.983Z" fill="#455A64"/>
<path d="M279.873 87.644C279.761 87.669 278.873 84.108 277.889 79.691C276.904 75.273 276.197 71.672 276.308 71.648C276.419 71.623 277.308 75.183 278.292 79.602C279.276 84.018 279.984 87.619 279.873 87.644Z" fill="#455A64"/>
<path d="M276.063 92.386C276.088 92.498 256.853 96.879 233.106 102.171C209.351 107.465 190.08 111.665 190.055 111.553C190.03 111.442 209.261 107.061 233.016 101.767C256.763 96.476 276.038 92.275 276.063 92.386Z" fill="#455A64"/>
<path d="M225.45 171.514C225.475 171.627 212.502 174.614 196.478 178.185C180.448 181.757 167.437 184.561 167.412 184.448C167.387 184.335 180.357 181.349 196.387 177.776C212.411 174.205 225.425 171.401 225.45 171.514Z" fill="#263238"/>
<path d="M322.163 160.622C322.188 160.735 288.29 168.385 246.46 177.708C204.615 187.034 170.683 194.499 170.658 194.387C170.633 194.274 204.524 186.625 246.369 177.3C288.2 167.977 322.138 160.51 322.163 160.622Z" fill="#263238"/>
<path d="M324.247 169.97C324.272 170.083 290.374 177.734 248.544 187.056C206.699 196.382 172.767 203.847 172.742 203.734C172.717 203.621 206.608 195.972 248.453 186.647C290.283 177.325 324.221 169.857 324.247 169.97Z" fill="#263238"/>
<path d="M326.33 179.318C326.355 179.431 292.457 187.081 250.627 196.404C208.782 205.73 174.85 213.195 174.825 213.082C174.8 212.969 208.691 205.32 250.536 195.995C292.366 186.673 326.305 179.205 326.33 179.318Z" fill="#263238"/>
<path d="M328.413 188.666C328.438 188.779 294.54 196.43 252.71 205.752C210.865 215.078 176.933 222.543 176.908 222.43C176.883 222.317 210.774 214.668 252.619 205.343C294.449 196.02 328.388 188.553 328.413 188.666Z" fill="#263238"/>
<path d="M330.496 198.014C330.521 198.127 296.623 205.778 254.793 215.1C212.948 224.426 179.017 231.891 178.991 231.778C178.966 231.665 212.857 224.016 254.702 214.691C296.533 205.368 330.471 197.901 330.496 198.014Z" fill="#263238"/>
<path d="M208.372 263.814C208.364 263.809 208.333 263.701 208.281 263.498C208.224 263.265 208.151 262.972 208.061 262.607C207.869 261.796 207.602 260.674 207.268 259.265C206.6 256.374 205.662 252.311 204.54 247.451L204.756 247.588C199.981 248.661 194.359 249.923 188.361 251.271C188.324 251.325 188.66 250.8 188.519 251.024L188.52 251.028L188.522 251.037L188.526 251.055L188.534 251.09L188.55 251.16L188.581 251.3L188.644 251.581L188.769 252.141C188.852 252.513 188.934 252.884 189.016 253.253C189.18 253.991 189.343 254.723 189.503 255.446C189.824 256.893 190.137 258.309 190.443 259.687C191.049 262.441 191.621 265.041 192.147 267.429L191.931 267.292C196.808 266.244 200.885 265.368 203.786 264.745C205.204 264.449 206.333 264.214 207.148 264.044C207.516 263.971 207.813 263.912 208.048 263.865C208.253 263.826 208.364 263.808 208.372 263.814C208.38 263.819 208.286 263.847 208.095 263.897C207.871 263.952 207.589 264.022 207.239 264.109C206.438 264.299 205.329 264.563 203.937 264.893C201.018 265.567 196.917 266.513 192.01 267.646L191.834 267.687L191.794 267.509C191.256 265.124 190.67 262.527 190.049 259.776C189.74 258.399 189.423 256.983 189.099 255.537C188.937 254.813 188.774 254.082 188.609 253.344C188.527 252.975 188.444 252.604 188.361 252.232L188.236 251.672L188.173 251.391L188.142 251.25L188.126 251.18L188.118 251.145L188.114 251.127L188.112 251.118L188.111 251.114C187.969 251.336 188.303 250.806 188.271 250.861C194.274 249.534 199.9 248.29 204.678 247.233L204.856 247.194L204.894 247.371C205.952 252.294 206.837 256.409 207.466 259.338C207.758 260.739 207.99 261.855 208.158 262.661C208.228 263.015 208.285 263.3 208.329 263.527C208.365 263.721 208.38 263.819 208.372 263.814Z" fill="#263238"/>
<path d="M330.284 223.385L215.867 248.88L217.994 258.425L332.411 232.93L330.284 223.385Z" fill="#E0E0E0"/>
<path d="M214.713 292.265C214.705 292.26 214.674 292.152 214.622 291.949C214.565 291.716 214.492 291.423 214.402 291.058C214.21 290.247 213.943 289.125 213.609 287.716C212.941 284.824 212.004 280.762 210.881 275.902L211.097 276.039C206.322 277.112 200.7 278.374 194.702 279.722C194.665 279.776 195.001 279.25 194.86 279.475L194.861 279.479L194.863 279.488L194.867 279.506L194.875 279.541L194.891 279.611L194.922 279.752L194.985 280.033L195.11 280.593C195.193 280.965 195.275 281.336 195.358 281.705C195.522 282.443 195.684 283.175 195.845 283.898C196.166 285.345 196.479 286.761 196.785 288.139C197.391 290.893 197.963 293.493 198.489 295.881L198.273 295.744C203.15 294.696 207.227 293.82 210.128 293.197C211.546 292.901 212.675 292.666 213.49 292.496C213.858 292.423 214.155 292.364 214.39 292.317C214.594 292.278 214.704 292.26 214.713 292.265C214.721 292.27 214.627 292.298 214.436 292.348C214.212 292.403 213.93 292.473 213.58 292.56C212.779 292.75 211.67 293.014 210.278 293.345C207.359 294.019 203.257 294.965 198.35 296.098L198.174 296.139L198.134 295.961C197.596 293.576 197.01 290.979 196.389 288.228C196.08 286.851 195.763 285.436 195.439 283.989C195.277 283.266 195.114 282.534 194.949 281.796C194.867 281.427 194.784 281.056 194.701 280.684L194.576 280.124L194.513 279.843L194.482 279.702L194.466 279.632L194.458 279.597L194.454 279.579L194.452 279.57L194.451 279.566C194.309 279.788 194.643 279.258 194.611 279.313C200.614 277.986 206.24 276.742 211.018 275.686L211.196 275.646L211.234 275.823C212.292 280.746 213.177 284.861 213.807 287.79C214.099 289.191 214.331 290.307 214.499 291.113C214.569 291.467 214.625 291.752 214.67 291.979C214.706 292.173 214.721 292.271 214.713 292.265Z" fill="#263238"/>
<path d="M336.624 251.838L222.208 277.333L224.335 286.878L338.751 261.384L336.624 251.838Z" fill="#E0E0E0"/>
<path d="M221.053 320.717C221.045 320.712 221.014 320.604 220.962 320.401C220.905 320.168 220.832 319.875 220.742 319.51C220.55 318.7 220.283 317.577 219.949 316.168C219.281 313.276 218.344 309.214 217.221 304.354L217.437 304.491C212.662 305.564 207.04 306.826 201.042 308.174C201.005 308.228 201.342 307.703 201.2 307.927L201.201 307.932L201.203 307.941L201.207 307.959L201.215 307.994L201.231 308.064L201.262 308.205L201.325 308.486L201.45 309.046C201.533 309.418 201.615 309.789 201.697 310.158C201.861 310.896 202.024 311.628 202.184 312.351C202.505 313.798 202.818 315.214 203.123 316.592C203.729 319.346 204.301 321.946 204.827 324.334L204.611 324.197C209.488 323.149 213.565 322.273 216.466 321.649C217.884 321.353 219.013 321.118 219.829 320.948C220.197 320.875 220.494 320.816 220.729 320.769C220.935 320.73 221.045 320.712 221.053 320.717C221.061 320.722 220.967 320.75 220.776 320.8C220.552 320.856 220.27 320.926 219.92 321.013C219.119 321.203 218.01 321.467 216.618 321.797C213.699 322.471 209.598 323.417 204.691 324.55L204.515 324.591L204.475 324.413C203.937 322.027 203.351 319.431 202.73 316.68C202.421 315.303 202.104 313.887 201.78 312.441C201.618 311.717 201.455 310.986 201.29 310.248C201.208 309.879 201.125 309.508 201.042 309.136L200.917 308.576L200.854 308.295L200.823 308.154L200.807 308.084L200.799 308.049L200.795 308.031L200.793 308.022L200.792 308.018C200.65 308.24 200.984 307.71 200.952 307.765C206.955 306.438 212.581 305.194 217.359 304.137L217.537 304.098L217.575 304.275C218.633 309.198 219.518 313.313 220.147 316.242C220.439 317.643 220.671 318.759 220.839 319.565C220.909 319.919 220.966 320.205 221.01 320.431C221.047 320.625 221.061 320.723 221.053 320.717Z" fill="#263238"/>
<path d="M342.965 280.292L228.549 305.787L230.675 315.332L345.092 289.837L342.965 280.292Z" fill="#E0E0E0"/>
<path d="M192.615 257.935L194.333 255.232L199.442 258.071L206.016 248.153L208.561 249.906L200.076 262.405L192.615 257.935Z" fill="#FF725E"/>
<path d="M198.744 285.435L200.462 282.732L205.57 285.571L212.145 275.653L214.69 277.406L206.205 289.905L198.744 285.435Z" fill="#FF725E"/>
<path d="M205.028 313.631L206.746 310.928L211.854 313.767L218.428 303.849L220.974 305.602L212.488 318.101L205.028 313.631Z" fill="#FF725E"/>
<path d="M257.396 349.014C257.421 349.127 247.761 351.376 235.823 354.036C223.88 356.697 214.182 358.763 214.157 358.65C214.132 358.537 223.789 356.289 235.732 353.627C247.67 350.967 257.37 348.902 257.396 349.014Z" fill="#263238"/>
<path d="M278.941 343.864C278.966 343.977 275.412 344.865 271.004 345.847C266.594 346.83 263.001 347.535 262.975 347.422C262.95 347.309 266.503 346.421 270.913 345.438C275.321 344.456 278.916 343.751 278.941 343.864Z" fill="#263238"/>
<path d="M350.281 321.409C350.306 321.522 341.614 323.555 330.87 325.949C320.122 328.344 311.391 330.194 311.366 330.081C311.341 329.968 320.031 327.935 330.779 325.54C341.523 323.146 350.256 321.296 350.281 321.409Z" fill="#263238"/>
<path d="M340.992 347.733C340.968 347.725 341.077 347.459 341.183 346.937C341.299 346.416 341.305 345.611 341.062 344.627C340.811 343.642 340.296 342.503 339.679 341.185C339.089 339.872 338.323 338.315 338.31 336.417C338.338 334.554 339.159 332.485 340.845 331.034C342.51 329.555 345.121 329.033 347.49 329.795C348.669 330.179 349.807 330.846 350.653 331.872C351.057 332.395 351.381 333.023 351.404 333.744C351.467 334.479 350.904 335.209 350.231 335.434C349.566 335.689 348.917 335.765 348.263 335.922C347.606 336.057 346.944 336.194 346.277 336.331C344.94 336.595 343.576 336.84 342.184 337.022C339.407 337.394 336.617 337.445 334.003 337.069C332.725 336.934 331.375 336.913 330.412 337.654C329.452 338.387 328.965 339.578 328.248 340.577C327.895 341.081 327.444 341.563 326.853 341.823C326.27 342.093 325.591 342.086 325.019 341.9C323.865 341.511 323.017 340.738 322.101 340.218C321.648 339.953 321.176 339.734 320.694 339.686C320.216 339.64 319.735 339.757 319.354 340.025C318.581 340.574 318.172 341.484 317.66 342.245C316.648 343.862 314.907 344.628 313.438 344.681C311.931 344.755 310.708 344.115 309.937 343.44C309.15 342.752 308.757 342.02 308.552 341.521C308.351 341.015 308.325 340.727 308.325 340.727C308.347 340.721 308.407 341.001 308.629 341.487C308.855 341.966 309.262 342.667 310.042 343.315C310.808 343.952 311.992 344.539 313.425 344.446C314.83 344.372 316.469 343.626 317.412 342.083C317.91 341.34 318.297 340.401 319.17 339.759C319.605 339.448 320.173 339.301 320.728 339.353C321.287 339.406 321.801 339.646 322.274 339.918C323.224 340.456 324.084 341.21 325.127 341.549C325.642 341.711 326.206 341.709 326.7 341.48C327.196 341.259 327.599 340.838 327.934 340.355C328.622 339.405 329.094 338.179 330.173 337.336C330.709 336.921 331.383 336.707 332.047 336.631C332.715 336.556 333.385 336.597 334.045 336.663C336.656 337.031 339.369 336.976 342.131 336.609C343.51 336.428 344.865 336.186 346.197 335.924C346.863 335.788 347.523 335.652 348.179 335.518C348.827 335.366 349.51 335.276 350.077 335.056C350.651 334.845 351.033 334.341 351 333.752C350.987 333.17 350.705 332.591 350.34 332.12C349.571 331.179 348.487 330.528 347.375 330.164C345.126 329.432 342.656 329.911 341.072 331.3C339.46 332.666 338.652 334.643 338.608 336.423C338.599 338.225 339.322 339.771 339.894 341.09C340.489 342.414 340.991 343.579 341.221 344.59C341.445 345.602 341.411 346.43 341.266 346.955C341.131 347.48 340.992 347.733 340.992 347.733Z" fill="#263238"/>
<path d="M361.667 334.931C361.67 334.945 361.49 334.998 361.145 335.086C360.757 335.18 360.255 335.301 359.631 335.451C358.265 335.768 356.372 336.207 354.054 336.744C349.345 337.836 342.848 339.377 335.7 341.189C328.55 343.004 322.104 344.746 317.444 346.031C315.15 346.663 313.277 347.18 311.925 347.552C311.305 347.717 310.806 347.85 310.42 347.952C310.075 348.039 309.891 348.078 309.887 348.064C309.883 348.05 310.058 347.984 310.396 347.871C310.776 347.749 311.268 347.591 311.879 347.395C313.169 346.988 315.042 346.424 317.363 345.745C322.004 344.387 328.442 342.598 335.597 340.782C342.75 338.969 349.261 337.472 353.989 336.454C356.353 335.944 358.269 335.548 359.596 335.29C360.227 335.171 360.734 335.076 361.126 335.002C361.479 334.942 361.664 334.917 361.667 334.931Z" fill="#263238"/>
<path d="M279.657 115.508L201.988 132.815L205.24 147.407L282.909 130.101L279.657 115.508Z" fill="#E0E0E0"/>
<path d="M353.119 352.306L378.211 484.868L401.141 442.501L444.603 468.009L398.468 338.925L353.119 352.306Z" fill="#FF725E"/>
<g opacity="0.3">
<path d="M361.558 396.89C366.196 397.845 371.61 396.205 374.901 392.8C377.187 390.435 378.712 387.222 381.595 385.638C384.183 384.216 387.374 384.419 390.22 385.205C393.066 385.991 395.746 387.31 398.604 388.051C404.206 389.505 410.384 388.587 415.323 385.569L408.085 365.469L374.482 361.272L358.46 380.518L361.558 396.89Z" fill="black"/>
</g>
<path d="M399.506 437.236C399.367 437.272 395.63 423.505 391.161 406.489C386.69 389.467 383.18 375.643 383.319 375.607C383.458 375.571 387.194 389.335 391.665 406.357C396.134 423.372 399.645 437.199 399.506 437.236Z" fill="#263238"/>
<path d="M356.792 359.202L331.699 491.763L308.769 449.396L265.307 474.905L311.442 345.821L356.792 359.202Z" fill="#FF725E"/>
<g opacity="0.3">
<path d="M297.643 384.429C297.643 384.429 304.779 390.304 313.294 387.597C321.808 384.89 327.094 384.321 331.7 387.597C336.306 390.873 348.776 401.553 348.776 401.553L351.671 386.259L334.925 363.26L317.436 366.791L304.981 368.035L300.351 376.799L297.643 384.429Z" fill="black"/>
</g>
<path d="M503.904 239.537C503.904 249.048 491.747 257.241 489.969 266.23C488.137 275.492 496.2 287.701 492.666 296.223C489.071 304.894 474.701 307.809 469.541 315.516C464.342 323.282 467.115 337.667 460.53 344.251C453.946 350.835 439.561 348.062 431.795 353.261C424.088 358.421 421.173 372.79 412.502 376.386C403.98 379.92 391.771 371.857 382.509 373.689C373.52 375.467 365.327 387.624 355.816 387.624C346.305 387.624 338.112 375.467 329.123 373.689C319.861 371.857 307.652 379.919 299.13 376.386C290.459 372.791 287.544 358.421 279.837 353.261C272.071 348.062 257.686 350.835 251.102 344.25C244.518 337.666 247.291 323.281 242.092 315.515C236.933 307.808 222.563 304.893 218.967 296.222C215.433 287.7 223.496 275.491 221.664 266.229C219.886 257.24 207.729 249.047 207.729 239.536C207.729 230.025 219.886 221.832 221.664 212.843C223.496 203.581 215.433 191.372 218.967 182.85C222.562 174.179 236.932 171.264 242.092 163.557C247.291 155.791 244.518 141.406 251.103 134.822C257.687 128.238 272.072 131.011 279.838 125.812C287.545 120.652 290.46 106.283 299.131 102.687C307.653 99.153 319.862 107.216 329.124 105.384C338.113 103.606 346.306 91.449 355.817 91.449C365.328 91.449 373.521 103.606 382.51 105.384C391.772 107.216 403.981 99.154 412.503 102.687C421.174 106.282 424.089 120.652 431.796 125.812C439.562 131.011 453.947 128.238 460.531 134.822C467.115 141.406 464.342 155.791 469.541 163.557C474.7 171.264 489.07 174.179 492.666 182.85C496.2 191.372 488.137 203.581 489.969 212.843C491.747 221.833 503.904 230.026 503.904 239.537Z" fill="#FF725E"/>
<path d="M321.168 156.531C321.152 156.539 321.06 156.398 320.899 156.122C320.714 155.79 320.489 155.388 320.217 154.903C319.631 153.841 318.822 152.283 317.858 150.341C315.926 146.458 313.428 141.005 311.019 134.838C308.615 128.667 306.759 122.962 305.552 118.797C304.947 116.715 304.487 115.021 304.199 113.843C304.07 113.302 303.963 112.854 303.875 112.485C303.807 112.173 303.779 112.007 303.796 112.002C303.813 111.997 303.875 112.154 303.976 112.457C304.09 112.819 304.228 113.258 304.394 113.789C304.775 115.024 305.285 116.68 305.904 118.691C307.2 122.822 309.106 128.494 311.504 134.65C313.907 140.802 316.345 146.265 318.189 150.183C319.095 152.082 319.841 153.646 320.397 154.812C320.633 155.315 320.83 155.732 320.991 156.075C321.122 156.365 321.184 156.522 321.168 156.531Z" fill="#263238"/>
<path d="M334.346 151.519C334.311 151.528 334.177 151.135 333.964 150.416C333.749 149.698 333.466 148.651 333.136 147.353C332.476 144.756 331.658 141.144 330.918 137.123C330.18 133.1 329.661 129.432 329.356 126.77C329.203 125.439 329.096 124.36 329.042 123.613C328.986 122.866 328.972 122.451 329.007 122.447C329.043 122.443 329.125 122.85 329.243 123.589C329.373 124.438 329.532 125.485 329.721 126.721C330.119 129.366 330.694 133.015 331.43 137.028C332.168 141.04 332.927 144.655 333.494 147.268C333.757 148.491 333.98 149.526 334.16 150.366C334.313 151.1 334.381 151.51 334.346 151.519Z" fill="#263238"/>
<path d="M357.596 149.209C357.452 149.212 357.082 137.995 356.769 124.158C356.456 110.316 356.319 99.096 356.463 99.093C356.607 99.09 356.977 110.305 357.29 124.147C357.602 137.983 357.739 149.206 357.596 149.209Z" fill="#263238"/>
<path d="M380.99 126.161C381.127 126.204 379.513 131.813 377.385 138.687C375.256 145.564 373.419 151.103 373.282 151.061C373.145 151.019 374.759 145.411 376.888 138.533C379.016 131.658 380.852 126.118 380.99 126.161Z" fill="#263238"/>
<path d="M390.54 155.147C390.523 155.141 390.567 154.978 390.666 154.674C390.79 154.315 390.941 153.88 391.122 153.355C391.524 152.211 392.146 150.572 392.923 148.549C394.486 144.507 396.734 138.959 399.292 132.864C401.85 126.766 404.227 121.273 405.98 117.311C406.844 115.392 407.555 113.811 408.086 112.632C408.324 112.13 408.522 111.714 408.685 111.372C408.827 111.086 408.91 110.94 408.927 110.947C408.944 110.954 408.893 111.115 408.781 111.414C408.643 111.767 408.475 112.196 408.272 112.713C407.78 113.909 407.12 115.511 406.319 117.457C404.615 121.521 402.315 127.005 399.773 133.066C397.246 139.13 394.96 144.618 393.266 148.686C392.465 150.631 391.805 152.233 391.312 153.428C391.094 153.939 390.914 154.363 390.765 154.712C390.633 155.003 390.556 155.153 390.54 155.147Z" fill="#263238"/>
<path d="M403.041 161.666C403.011 161.646 403.216 161.285 403.611 160.648C404.005 160.01 404.599 159.103 405.35 157.994C406.852 155.775 409.008 152.764 411.522 149.539C414.039 146.314 416.435 143.49 418.221 141.493C419.114 140.494 419.849 139.698 420.372 139.16C420.893 138.621 421.194 138.335 421.221 138.359C421.248 138.383 420.998 138.715 420.524 139.294C419.976 139.955 419.3 140.77 418.501 141.733C416.789 143.788 414.444 146.642 411.933 149.859C409.425 153.076 407.228 156.045 405.651 158.206C404.912 159.215 404.286 160.07 403.778 160.762C403.332 161.363 403.071 161.686 403.041 161.666Z" fill="#263238"/>
<path d="M421.221 176.571C421.123 176.466 429.035 168.945 438.891 159.776C448.75 150.604 456.82 143.256 456.918 143.361C457.016 143.466 449.105 150.985 439.246 160.157C429.39 169.327 421.319 176.676 421.221 176.571Z" fill="#263238"/>
<path d="M452.984 179.677C453.016 179.749 451.844 180.336 449.97 181.319C448.094 182.299 445.537 183.713 442.718 185.296C439.897 186.88 437.299 188.25 435.374 189.148C434.412 189.597 433.626 189.946 433.073 190.164C432.522 190.386 432.21 190.493 432.195 190.46C432.163 190.389 433.335 189.801 435.209 188.818C437.085 187.838 439.642 186.424 442.463 184.84C445.283 183.257 447.881 181.887 449.805 180.988C450.767 180.539 451.553 180.19 452.106 179.972C452.658 179.751 452.969 179.644 452.984 179.677Z" fill="#263238"/>
<path d="M482.388 191.874C482.436 192.01 473.017 195.449 461.354 199.555C449.687 203.662 440.193 206.881 440.145 206.746C440.097 206.61 449.514 203.172 461.181 199.064C472.845 194.958 482.34 191.738 482.388 191.874Z" fill="#263238"/>
<path d="M491.747 245.34C491.733 245.483 481.498 244.626 468.888 243.426C456.274 242.225 446.063 241.136 446.076 240.993C446.09 240.85 456.323 241.707 468.937 242.908C481.547 244.108 491.76 245.197 491.747 245.34Z" fill="#263238"/>
<path d="M484.22 293.297C484.159 293.427 474.589 289.035 462.848 283.488C451.103 277.939 441.635 273.338 441.697 273.208C441.758 273.078 451.326 277.469 463.071 283.018C474.811 288.564 484.281 293.167 484.22 293.297Z" fill="#263238"/>
<path d="M452.74 338.925C452.63 339.018 445.728 331.012 437.325 321.046C428.92 311.077 422.197 302.923 422.307 302.83C422.417 302.737 429.318 310.741 437.723 320.71C446.126 330.677 452.85 338.833 452.74 338.925Z" fill="#263238"/>
<path d="M426.465 344.953C426.435 344.972 426.139 344.571 425.631 343.829C425.121 343.087 424.405 342 423.536 340.646C421.798 337.939 419.467 334.152 417.013 329.9C414.559 325.646 412.448 321.733 410.974 318.873C410.237 317.443 409.654 316.279 409.267 315.466C408.879 314.654 408.679 314.198 408.711 314.181C408.743 314.165 409.003 314.59 409.446 315.372C409.932 316.245 410.554 317.362 411.298 318.699C412.854 321.512 415.014 325.391 417.464 329.64C419.915 333.886 422.192 337.697 423.849 340.452C424.634 341.766 425.29 342.863 425.802 343.72C426.257 344.496 426.495 344.934 426.465 344.953Z" fill="#263238"/>
<path d="M410.141 367.901C410.125 367.909 410.036 367.768 409.881 367.491C409.703 367.158 409.487 366.755 409.227 366.269C408.665 365.205 407.891 363.644 406.971 361.699C405.128 357.81 402.76 352.347 400.507 346.175C398.26 339.998 396.558 334.292 395.467 330.129C394.92 328.047 394.508 326.355 394.254 325.179C394.141 324.64 394.047 324.192 393.969 323.823C393.909 323.512 393.887 323.346 393.904 323.342C393.922 323.338 393.978 323.495 394.071 323.798C394.175 324.161 394.3 324.6 394.451 325.13C394.797 326.366 395.26 328.022 395.822 330.031C397.002 334.162 398.754 339.836 400.996 345.996C403.243 352.153 405.551 357.623 407.305 361.545C408.168 363.445 408.878 365.011 409.409 366.18C409.634 366.683 409.821 367.1 409.975 367.444C410.099 367.736 410.157 367.893 410.141 367.901Z" fill="#263238"/>
<path d="M377.079 351.813C377.002 351.817 376.879 350.482 376.647 348.331C376.416 346.18 376.053 343.215 375.51 339.962C374.964 336.708 374.342 333.786 373.861 331.677C373.38 329.568 373.062 328.265 373.136 328.244C373.171 328.234 373.293 328.548 373.485 329.124C373.679 329.7 373.931 330.541 374.218 331.588C374.793 333.681 375.475 336.607 376.024 339.876C376.569 343.145 376.876 346.133 377.014 348.299C377.084 349.382 377.12 350.26 377.123 350.867C377.128 351.475 377.115 351.811 377.079 351.813Z" fill="#263238"/>
<path d="M355.451 380.599C355.433 380.599 355.418 380.422 355.407 380.086C355.401 379.69 355.393 379.205 355.384 378.616C355.371 377.339 355.379 375.492 355.421 373.21C355.497 368.645 355.706 362.341 356.072 355.386C356.433 348.428 356.881 342.137 357.249 337.587C357.435 335.312 357.601 333.473 357.731 332.203C357.797 331.618 357.851 331.135 357.895 330.742C357.938 330.408 357.971 330.234 357.989 330.236C358.007 330.237 358.01 330.415 358 330.751C357.982 331.146 357.96 331.631 357.933 332.22C357.854 333.572 357.746 335.396 357.616 337.615C357.35 342.242 356.99 348.499 356.592 355.415C356.227 362.366 355.96 368.663 355.789 373.222C355.706 375.443 355.637 377.268 355.587 378.622C355.557 379.21 355.533 379.695 355.513 380.09C355.49 380.423 355.469 380.599 355.451 380.599Z" fill="#263238"/>
<path d="M337.87 330.234C337.939 330.247 337.831 331.222 337.57 332.786C337.31 334.349 336.889 336.499 336.338 338.853C335.786 341.208 335.208 343.321 334.746 344.837C334.285 346.354 333.948 347.275 333.881 347.256C333.81 347.236 334.022 346.278 334.391 344.741C334.803 343.024 335.291 340.987 335.831 338.735C336.348 336.478 336.815 334.437 337.209 332.715C337.561 331.173 337.797 330.221 337.87 330.234Z" fill="#263238"/>
<path d="M306.082 314.961C306.197 315.048 304.238 317.824 301.707 321.161C299.176 324.499 297.031 327.133 296.917 327.046C296.802 326.959 298.761 324.184 301.293 320.846C303.822 317.509 305.967 314.874 306.082 314.961Z" fill="#263238"/>
<path d="M289.406 303.757C289.514 303.852 283.309 311.139 275.547 320.031C267.783 328.927 261.402 336.059 261.294 335.964C261.186 335.869 267.39 328.584 275.155 319.689C282.916 310.796 289.297 303.662 289.406 303.757Z" fill="#263238"/>
<path d="M281.061 291.355C281.152 291.466 277.7 294.462 273.35 298.047C268.999 301.633 265.399 304.449 265.307 304.338C265.216 304.227 268.667 301.231 273.018 297.645C277.368 294.06 280.969 291.244 281.061 291.355Z" fill="#263238"/>
<path d="M271.298 272.641C271.361 272.771 262.717 277.065 251.995 282.232C241.269 287.401 232.526 291.485 232.464 291.355C232.402 291.225 241.043 286.932 251.769 281.763C262.491 276.596 271.236 272.512 271.298 272.641Z" fill="#263238"/>
<path d="M267.375 263.307C267.382 263.342 267.062 263.435 266.477 263.573C265.893 263.713 265.042 263.888 263.986 264.083C261.875 264.475 258.939 264.92 255.678 265.248C252.415 265.573 249.449 265.718 247.302 265.753C246.228 265.771 245.36 265.768 244.759 265.746C244.159 265.727 243.827 265.699 243.826 265.663C243.825 265.587 245.15 265.514 247.287 265.385C249.425 265.256 252.375 265.054 255.625 264.73C258.874 264.404 261.805 264.017 263.926 263.72C266.048 263.423 267.361 263.232 267.375 263.307Z" fill="#263238"/>
<path d="M264.209 241.762C264.206 241.798 263.583 241.782 262.459 241.724C261.25 241.662 259.646 241.579 257.703 241.48C253.688 241.285 248.137 241.102 242.005 241.132C235.871 241.167 230.322 241.41 226.309 241.648C224.368 241.769 222.765 241.868 221.556 241.943C220.434 242.014 219.811 242.036 219.807 242C219.804 241.964 220.42 241.874 221.538 241.741C222.656 241.605 224.277 241.445 226.283 241.28C230.295 240.948 235.854 240.646 242.001 240.61C248.146 240.579 253.708 240.822 257.723 241.111C259.731 241.254 261.354 241.397 262.473 241.521C263.595 241.643 264.212 241.726 264.209 241.762Z" fill="#263238"/>
<path d="M266.173 222.839C266.134 222.978 259.659 221.292 251.712 219.074C243.762 216.856 237.351 214.946 237.389 214.807C237.428 214.668 243.902 216.354 251.852 218.572C259.799 220.79 266.212 222.701 266.173 222.839Z" fill="#263238"/>
<path d="M270.358 206.974C270.352 206.991 270.19 206.954 269.886 206.868C269.525 206.759 269.089 206.626 268.563 206.467C267.416 206.113 265.772 205.553 263.755 204.819C259.721 203.354 254.222 201.111 248.341 198.219C242.462 195.319 237.331 192.327 233.71 190.022C231.899 188.871 230.453 187.909 229.473 187.216C229.026 186.896 228.656 186.631 228.349 186.412C228.095 186.224 227.967 186.117 227.977 186.102C227.987 186.087 228.135 186.164 228.407 186.325C228.728 186.522 229.116 186.76 229.584 187.047C230.597 187.688 232.071 188.601 233.903 189.709C237.566 191.929 242.709 194.861 248.57 197.751C254.433 200.634 259.892 202.924 263.884 204.474C265.88 205.251 267.502 205.863 268.628 206.275C269.141 206.471 269.566 206.634 269.918 206.768C270.213 206.887 270.364 206.957 270.358 206.974Z" fill="#263238"/>
<path d="M279.771 191.025C279.688 191.143 274.626 187.72 268.465 183.382C262.302 179.042 257.375 175.43 257.458 175.312C257.541 175.194 262.602 178.616 268.765 182.956C274.926 187.295 279.854 190.908 279.771 191.025Z" fill="#263238"/>
<path d="M259.876 142.417C259.888 142.404 260.018 142.5 260.255 142.694C260.534 142.933 260.869 143.22 261.272 143.565C262.205 144.392 263.448 145.494 264.955 146.829C268.114 149.648 272.367 153.442 277.068 157.636C281.789 161.81 286.059 165.587 289.231 168.391C290.735 169.73 291.976 170.834 292.907 171.663C293.297 172.022 293.621 172.321 293.891 172.57C294.112 172.782 294.223 172.9 294.211 172.913C294.199 172.927 294.066 172.836 293.822 172.65C293.535 172.421 293.189 172.147 292.774 171.817C291.87 171.085 290.577 170.011 288.989 168.67C285.813 165.989 281.464 162.238 276.721 158.026C271.98 153.814 267.742 149.94 264.705 147.102C263.187 145.683 261.966 144.525 261.133 143.715C260.756 143.342 260.443 143.031 260.182 142.772C259.97 142.552 259.864 142.43 259.876 142.417Z" fill="#263238"/>
<path d="M291.071 143.326C291.099 143.303 291.34 143.551 291.751 144.018C292.163 144.484 292.739 145.176 293.435 146.044C294.827 147.779 296.679 150.235 298.596 153.037C300.513 155.841 302.13 158.458 303.242 160.385C303.799 161.348 304.234 162.136 304.519 162.689C304.805 163.242 304.949 163.556 304.918 163.573C304.852 163.611 304.118 162.448 302.928 160.576C301.738 158.702 300.077 156.126 298.167 153.331C296.256 150.538 294.458 148.056 293.143 146.268C291.829 144.479 291.012 143.374 291.071 143.326Z" fill="#263238"/>
<g opacity="0.2">
<path d="M251.104 134.823L294.607 172.914L305.421 164.261L280.176 125.578C280.176 125.578 278.242 127.001 273.215 128.437C268.346 129.829 254.008 130.201 251.104 134.823Z" fill="black"/>
</g>
<g opacity="0.2">
<path d="M299.528 102.601L320.773 155.773L334.346 151.52L329.823 105.403C329.823 105.403 327.485 105.95 322.299 105.291C317.275 104.652 305.08 99.884 299.528 102.601Z" fill="black"/>
</g>
<g opacity="0.3">
<path d="M356.171 91.467L357.596 149.209L370.321 149.82L383.204 105.503C382.959 105.481 379.634 104.906 375.713 102.4C371.306 99.585 362.334 91.008 356.171 91.467Z" fill="black"/>
</g>
<g opacity="0.2">
<path d="M411.65 102.376L390.539 155.608L402.033 161.103L431.084 125.242C430.866 125.127 428.113 122.834 425.567 118.755C422.799 114.318 418.081 104.153 411.65 102.376Z" fill="black"/>
</g>
<g opacity="0.2">
<path d="M461.229 135.594L421.907 176.571L430.671 188.381L469.091 162.738C469.091 162.738 467.477 160.18 466.564 155.257C465.639 150.277 465.505 141.203 461.229 135.594Z" fill="black"/>
</g>
<g opacity="0.2">
<path d="M492.268 181.852L439.318 203.645L443.711 217.173L489.779 212.174C489.779 212.174 489.491 210.75 490.096 205.557C490.683 200.526 495.966 189.29 492.268 181.852Z" fill="black"/>
</g>
<g opacity="0.2">
<path d="M503.986 239.537L446.262 241.558L445.782 254.288L489.817 267.171C489.836 266.925 490.229 264.438 491.563 261.915C494.805 255.784 503.986 247.14 503.986 239.537Z" fill="black"/>
</g>
<g opacity="0.2">
<path d="M493.353 294.121L440.203 273.405L434.827 284.955L470.986 313.634C471.099 313.415 473.211 311.458 477.263 308.87C481.672 306.056 492.13 301.51 493.353 294.121Z" fill="black"/>
</g>
<g opacity="0.2">
<path d="M415.177 293.297L402.022 304.338C403.018 305.38 420.552 335.178 431.354 353.6C431.503 353.491 431.642 353.364 431.794 353.261C438.91 348.497 451.568 350.407 458.705 345.696L415.177 293.297Z" fill="black"/>
<path d="M391.003 314.181L371.361 320.878L380.661 374.202C381.274 373.988 381.89 373.812 382.51 373.689C391.772 371.857 403.981 379.92 412.503 376.386C413.675 375.9 414.734 375.205 415.722 374.375L391.003 314.181Z" fill="black"/>
<path d="M355.136 387.597L358.275 317.936L341.293 313.634L328.657 373.612C328.813 373.637 328.97 373.658 329.125 373.688C337.898 375.424 345.914 387.041 355.136 387.597Z" fill="black"/>
<path d="M312.435 306.11C312.435 306.11 289.994 336.167 278.262 352.355C278.811 352.628 279.339 352.927 279.838 353.261C287.545 358.421 290.46 372.791 299.131 376.386C299.529 376.551 299.937 376.683 300.35 376.8L331.699 317.461L312.435 306.11Z" fill="black"/>
<path d="M289.406 281.908L241.546 314.803C241.729 315.04 241.929 315.268 242.094 315.515C247.293 323.281 244.52 337.666 251.104 344.25C251.71 344.856 252.4 345.36 253.127 345.821C270.039 326.758 300.399 292.544 301.499 291.355L289.406 281.908Z" fill="black"/>
<path d="M278.44 258.423L221.855 267.562C222.756 276.638 215.602 288.103 218.969 296.222C219.175 296.719 219.425 297.191 219.698 297.652C239.5 287.793 280.874 267.284 282.595 267.171L278.44 258.423Z" fill="black"/>
<path d="M275.35 226.904L221.859 211.467C221.814 211.932 221.755 212.393 221.665 212.845C219.887 221.834 207.73 230.027 207.73 239.538C207.73 240.176 207.789 240.808 207.891 241.435H273.184L275.35 226.904Z" fill="black"/>
<path d="M219.185 182.426C239.173 193.139 278.263 214.808 278.263 214.808L287.883 196.539L242.696 162.518C242.503 162.871 242.315 163.229 242.093 163.559C237.022 171.134 223.074 174.093 219.185 182.426Z" fill="black"/>
</g>
<path d="M503.904 239.537C503.904 239.537 503.879 239.324 503.841 238.904C503.787 238.486 503.806 237.849 503.577 237.044C503.263 235.412 502.349 233.067 500.58 230.34C498.863 227.577 496.26 224.494 493.546 220.581C492.223 218.614 490.847 216.393 490.112 213.727C489.379 211.057 489.519 208.051 490.094 205.02C490.646 201.971 491.555 198.831 492.35 195.5C493.085 192.187 493.877 188.568 493.138 184.885C492.745 183.066 491.881 181.331 490.653 179.824C489.412 178.322 487.853 177.06 486.206 175.877C482.887 173.522 479.074 171.636 475.421 169.179C473.605 167.945 471.801 166.571 470.318 164.817C468.819 163.068 467.848 160.887 467.193 158.631C465.907 154.084 465.624 149.217 464.647 144.356C464.149 141.937 463.476 139.478 462.184 137.298C460.92 135.1 458.875 133.4 456.488 132.37C454.106 131.313 451.488 130.765 448.841 130.326C446.187 129.89 443.474 129.581 440.746 129.097C438.03 128.609 435.245 127.965 432.73 126.573C430.2 125.191 428.223 122.969 426.566 120.603C424.906 118.218 423.479 115.658 421.959 113.131C420.437 110.612 418.837 108.079 416.761 105.926C414.688 103.793 411.923 102.258 408.874 102.058C405.838 101.832 402.762 102.413 399.73 103.132C396.69 103.862 393.647 104.75 390.494 105.342C387.368 105.952 384.006 106.167 380.837 105.161C377.715 104.077 374.962 102.184 372.304 100.234C369.642 98.275 367.041 96.188 364.189 94.456C361.352 92.78 358.113 91.383 354.744 91.761L354.119 91.809C353.913 91.844 353.709 91.898 353.504 91.941C353.096 92.038 352.681 92.113 352.277 92.227C351.485 92.519 350.672 92.756 349.916 93.151C348.363 93.841 346.917 94.776 345.483 95.724C342.635 97.666 339.95 99.896 337.033 101.877C335.59 102.888 334.045 103.775 332.431 104.538C330.798 105.274 329.024 105.718 327.223 105.854C323.603 106.031 320.044 105.214 316.556 104.334C313.059 103.458 309.561 102.454 305.953 102.108C304.153 101.957 302.33 102.033 300.584 102.469C298.825 102.892 297.265 103.891 295.881 105.053C293.123 107.46 291.195 110.698 289.278 113.882C287.366 117.084 285.55 120.423 283.01 123.297C281.729 124.708 280.247 125.995 278.511 126.866C276.776 127.718 274.926 128.288 273.054 128.73C269.295 129.555 265.455 129.908 261.671 130.593C257.929 131.273 254.035 132.337 251.26 135.026C249.925 136.397 248.99 138.113 248.304 139.916C247.603 141.722 247.201 143.643 246.846 145.568C246.145 149.426 245.822 153.388 244.887 157.283C244.442 159.23 243.773 161.158 242.759 162.917C241.743 164.675 240.335 166.2 238.751 167.452C235.591 169.992 231.997 171.872 228.564 173.974C226.852 175.033 225.161 176.135 223.605 177.408C222.073 178.699 220.681 180.181 219.727 181.931C218.76 183.671 218.318 185.679 218.334 187.694C218.327 189.71 218.629 191.729 219.036 193.728C219.882 197.725 221.151 201.662 221.828 205.772C222.181 207.819 222.308 209.937 222.034 212.029C221.765 214.128 220.954 216.123 219.945 217.958C217.862 221.613 215.142 224.817 212.731 228.22C211.513 229.913 210.389 231.678 209.506 233.556C208.629 235.428 208.008 237.446 207.993 239.514C208.006 241.582 208.613 243.603 209.487 245.478C210.364 247.36 211.491 249.124 212.707 250.819C215.116 254.225 217.84 257.427 219.926 261.082C220.938 262.916 221.754 264.908 222.031 267.008C222.312 269.1 222.187 271.22 221.834 273.268C221.162 277.38 219.89 281.319 219.044 285.317C218.637 287.316 218.331 289.335 218.334 291.352C218.312 293.368 218.757 295.376 219.716 297.12C220.665 298.873 222.056 300.358 223.587 301.651C225.144 302.923 226.832 304.029 228.545 305.088C231.98 307.191 235.574 309.072 238.737 311.609C240.32 312.862 241.732 314.383 242.751 316.14C243.769 317.898 244.437 319.827 244.884 321.773C245.822 325.668 246.144 329.632 246.844 333.49C247.198 335.416 247.601 337.337 248.301 339.144C248.987 340.947 249.917 342.667 251.254 344.038C254.026 346.732 257.921 347.797 261.663 348.478C265.448 349.164 269.289 349.517 273.049 350.341C274.922 350.782 276.771 351.352 278.507 352.203C280.243 353.075 281.726 354.361 283.008 355.772C285.549 358.646 287.365 361.986 289.278 365.188C291.196 368.372 293.124 371.611 295.882 374.019C297.266 375.181 298.826 376.18 300.586 376.604C302.332 377.04 304.156 377.116 305.956 376.965C309.564 376.618 313.063 375.614 316.56 374.738C320.049 373.858 323.608 373.041 327.229 373.219C329.03 373.356 330.804 373.801 332.437 374.537C334.051 375.301 335.596 376.188 337.039 377.199C339.956 379.181 342.641 381.411 345.49 383.353C346.924 384.301 348.37 385.236 349.924 385.925C350.68 386.321 351.494 386.557 352.286 386.849C352.691 386.962 353.105 387.038 353.513 387.135C353.718 387.178 353.922 387.233 354.128 387.267L354.753 387.315C358.123 387.692 361.361 386.291 364.198 384.616C367.05 382.882 369.651 380.796 372.313 378.836C374.972 376.887 377.724 374.992 380.848 373.911C384.018 372.906 387.379 373.124 390.506 373.735C393.659 374.327 396.702 375.216 399.742 375.946C402.775 376.664 405.851 377.244 408.887 377.017C411.935 376.812 414.7 375.277 416.771 373.141C418.846 370.987 420.446 368.453 421.967 365.934C423.487 363.407 424.914 360.848 426.574 358.462C428.233 356.097 430.211 353.876 432.743 352.496C435.259 351.106 438.045 350.465 440.76 349.977C443.488 349.493 446.201 349.184 448.855 348.748C451.502 348.308 454.12 347.76 456.501 346.701C458.887 345.669 460.931 343.966 462.193 341.767C463.483 339.586 464.155 337.128 464.652 334.708C465.628 329.847 465.911 324.979 467.199 320.434C467.853 318.178 468.827 315.998 470.328 314.25C471.812 312.497 473.616 311.124 475.433 309.891C479.087 307.435 482.899 305.548 486.217 303.193C487.864 302.01 489.421 300.746 490.662 299.245C491.889 297.737 492.751 296.001 493.142 294.182C493.568 292.362 493.458 290.505 493.295 288.733C493.119 286.95 492.72 285.238 492.351 283.568C491.555 280.238 490.647 277.098 490.095 274.05C489.521 271.019 489.383 268.013 490.116 265.344C490.852 262.679 492.228 260.458 493.551 258.491C496.265 254.579 498.868 251.497 500.584 248.734C502.353 246.007 503.267 243.663 503.58 242.031C503.809 241.226 503.79 240.589 503.843 240.172C503.879 239.75 503.904 239.537 503.904 239.537C503.904 239.537 503.896 239.75 503.868 240.171C503.823 240.59 503.851 241.23 503.63 242.04C503.333 243.682 502.43 246.045 500.671 248.788C498.964 251.567 496.37 254.666 493.677 258.576C492.365 260.541 491.004 262.756 490.287 265.388C489.572 268.022 489.713 270.995 490.293 274.012C490.85 277.045 491.764 280.178 492.569 283.514C492.942 285.189 493.346 286.906 493.529 288.705C493.697 290.493 493.814 292.371 493.384 294.231C492.989 296.089 492.108 297.871 490.861 299.407C489.601 300.937 488.028 302.217 486.371 303.411C483.034 305.787 479.22 307.682 475.593 310.13C473.79 311.358 472.008 312.721 470.557 314.441C469.092 316.152 468.142 318.284 467.497 320.518C466.227 325.017 465.949 329.878 464.975 334.772C464.477 337.209 463.803 339.701 462.484 341.939C461.195 344.197 459.074 345.967 456.642 347.019C454.213 348.102 451.57 348.656 448.912 349.101C446.247 349.543 443.535 349.855 440.824 350.339C438.124 350.826 435.373 351.468 432.924 352.826C430.466 354.168 428.532 356.336 426.889 358.683C425.246 361.047 423.824 363.601 422.303 366.136C420.779 368.664 419.171 371.221 417.056 373.422C414.954 375.606 412.059 377.216 408.922 377.425C405.804 377.661 402.692 377.07 399.644 376.352C396.591 375.621 393.551 374.737 390.428 374.153C387.325 373.549 384.045 373.349 380.982 374.322C377.945 375.375 375.22 377.244 372.573 379.19C369.92 381.145 367.314 383.24 364.427 384.998C363.683 385.4 362.973 385.866 362.188 386.201C361.801 386.377 361.421 386.572 361.027 386.734L359.817 387.163C358.187 387.658 356.443 387.991 354.711 387.765L354.061 387.714C353.847 387.68 353.637 387.623 353.425 387.579C353.003 387.48 352.574 387.401 352.156 387.284C351.343 386.986 350.504 386.741 349.733 386.339C348.144 385.634 346.681 384.688 345.232 383.732C342.36 381.776 339.67 379.545 336.778 377.583C335.346 376.58 333.825 375.71 332.246 374.963C330.65 374.246 328.947 373.822 327.198 373.688C323.678 373.516 320.155 374.318 316.675 375.199C313.187 376.073 309.672 377.088 305.996 377.443C304.16 377.597 302.28 377.524 300.46 377.07C298.622 376.627 296.99 375.585 295.564 374.386C292.721 371.902 290.783 368.629 288.856 365.438C286.941 362.232 285.127 358.911 282.64 356.102C281.384 354.722 279.958 353.488 278.281 352.645C276.598 351.821 274.785 351.261 272.938 350.826C269.223 350.012 265.388 349.659 261.571 348.97C259.669 348.602 257.749 348.209 255.917 347.484C254.089 346.777 252.325 345.797 250.894 344.392C249.492 342.955 248.529 341.169 247.825 339.321C247.108 337.467 246.701 335.521 246.343 333.579C245.637 329.69 245.313 325.733 244.386 321.892C243.945 319.971 243.289 318.09 242.307 316.396C241.325 314.704 239.968 313.236 238.411 312.004C235.308 309.514 231.727 307.636 228.274 305.525C226.55 304.459 224.843 303.343 223.255 302.046C221.692 300.726 220.252 299.196 219.259 297.363C218.254 295.539 217.792 293.425 217.815 291.356C217.811 289.281 218.124 287.228 218.535 285.209C219.39 281.176 220.658 277.241 221.32 273.185C221.668 271.164 221.785 269.096 221.515 267.078C221.249 265.058 220.465 263.137 219.471 261.334C217.423 257.743 214.709 254.547 212.282 251.118C211.058 249.412 209.914 247.623 209.015 245.696C208.12 243.776 207.485 241.68 207.472 239.512C207.488 237.343 208.136 235.251 209.034 233.335C209.938 231.412 211.08 229.623 212.306 227.919C214.735 224.494 217.445 221.297 219.49 217.705C220.481 215.901 221.26 213.979 221.519 211.959C221.783 209.942 221.664 207.874 221.315 205.854C220.649 201.8 219.382 197.866 218.529 193.834C218.119 191.815 217.809 189.762 217.817 187.688C217.799 185.62 218.259 183.505 219.272 181.685C220.27 179.856 221.712 178.328 223.276 177.011C224.863 175.713 226.572 174.6 228.295 173.535C231.746 171.424 235.327 169.547 238.427 167.055C239.984 165.824 241.338 164.353 242.317 162.66C243.295 160.964 243.952 159.084 244.391 157.163C245.315 153.323 245.64 149.367 246.346 145.479C246.705 143.538 247.112 141.592 247.83 139.739C248.534 137.891 249.501 136.108 250.902 134.671C252.335 133.268 254.1 132.291 255.928 131.585C257.76 130.862 259.679 130.468 261.581 130.101C265.397 129.412 269.23 129.06 272.945 128.245C274.792 127.81 276.604 127.25 278.286 126.425C279.963 125.583 281.387 124.347 282.643 122.968C285.129 120.16 286.943 116.839 288.857 113.633C290.783 110.442 292.722 107.17 295.564 104.687C296.99 103.489 298.622 102.447 300.46 102.004C302.279 101.55 304.159 101.477 305.995 101.631C309.67 101.986 313.185 103.001 316.672 103.875C320.152 104.756 323.674 105.558 327.194 105.387C328.942 105.253 330.645 104.83 332.241 104.113C333.819 103.367 335.34 102.497 336.773 101.494C339.665 99.532 342.354 97.302 345.226 95.346C346.674 94.389 348.137 93.444 349.726 92.739C350.497 92.337 351.335 92.091 352.148 91.793C352.565 91.675 352.994 91.597 353.416 91.497C353.628 91.452 353.839 91.397 354.052 91.361L354.702 91.31C356.434 91.083 358.178 91.416 359.808 91.909L361.018 92.338C361.413 92.499 361.792 92.694 362.18 92.87C362.965 93.205 363.676 93.67 364.419 94.072C367.307 95.829 369.912 97.924 372.565 99.879C375.211 101.826 377.936 103.694 380.972 104.749C384.034 105.723 387.314 105.526 390.417 104.922C393.54 104.338 396.58 103.455 399.633 102.723C402.68 102.005 405.792 101.413 408.91 101.647C412.047 101.85 414.942 103.461 417.047 105.641C419.163 107.841 420.772 110.398 422.296 112.926C423.817 115.461 425.239 118.015 426.881 120.379C428.522 122.727 430.456 124.896 432.912 126.24C435.36 127.599 438.111 128.244 440.81 128.731C443.521 129.215 446.234 129.527 448.898 129.968C451.556 130.413 454.199 130.966 456.629 132.047C459.061 133.097 461.185 134.865 462.476 137.121C463.797 139.358 464.472 141.85 464.97 144.286C465.946 149.18 466.223 154.04 467.491 158.541C468.137 160.775 469.085 162.908 470.548 164.62C471.999 166.341 473.78 167.705 475.582 168.934C479.208 171.383 483.023 173.277 486.36 175.653C488.017 176.847 489.591 178.125 490.851 179.656C492.099 181.191 492.982 182.972 493.378 184.83C493.81 186.69 493.693 188.569 493.526 190.357C493.344 192.156 492.941 193.874 492.567 195.548C491.762 198.885 490.848 202.018 490.291 205.051C489.711 208.068 489.568 211.041 490.283 213.676C491 216.309 492.36 218.524 493.672 220.49C496.365 224.401 498.96 227.5 500.667 230.28C502.426 233.023 503.33 235.387 503.627 237.029C503.848 237.839 503.82 238.479 503.865 238.898C503.897 239.324 503.904 239.537 503.904 239.537Z" fill="#263238"/>
<path d="M328.042 376.958C328.181 376.993 324.49 391.959 319.798 410.38C315.105 428.807 311.188 443.712 311.049 443.676C310.91 443.64 314.6 428.678 319.293 410.251C323.985 391.831 327.903 376.923 328.042 376.958Z" fill="#263238"/>
<path d="M355.817 330.313C405.951 330.313 446.593 289.671 446.593 239.537C446.593 189.403 405.951 148.761 355.817 148.761C305.683 148.761 265.041 189.403 265.041 239.537C265.041 289.671 305.683 330.313 355.817 330.313Z" fill="white"/>
<path d="M299.922 208.083C298.67 209.335 291.786 221.851 291.16 232.177C290.534 242.503 292.018 300.495 292.018 300.495L292.286 304.338C308.629 323.449 368.025 351.887 421.528 304.242L424.526 268.574L415.698 193.064L385.033 185.554L377.842 173.899L329.917 185.119L325.643 195.224L299.922 208.083Z" fill="#455A64"/>
<path d="M374.518 143.536C376.628 135.691 378.704 127.79 379.434 119.699C380.163 111.608 379.488 103.248 376.27 95.789C375.782 94.658 371.731 87.113 370.513 87.296C369.642 87.428 372.264 94.526 371.861 95.309C368.013 102.776 367.315 111.554 368.42 119.88C369.525 128.208 371.652 135.641 374.518 143.536Z" fill="#263238"/>
<path d="M373.723 112.542C373.336 92.172 361.159 75.419 340.808 76.37L338.932 76.567C320.057 78.557 305.867 94.702 306.333 113.677C306.766 131.33 307.472 150.83 308.578 160.209C310.867 179.624 330.631 180.598 330.631 180.598C330.675 180.596 331.537 193.367 331.537 193.367L339.889 202.44L378.6 178.463L373.723 112.542Z" fill="#FFBF9D"/>
<path d="M330.631 180.748C330.631 180.748 342.961 180.175 355.155 170.596C355.155 170.596 351.071 188.206 331.487 188.5L330.631 180.748Z" fill="#FF9A6C"/>
<path d="M317.516 129.513C317.618 130.984 318.95 132.111 320.488 132.032C322.024 131.953 323.189 130.699 323.086 129.227C322.983 127.756 321.653 126.627 320.117 126.706C318.578 126.785 317.413 128.042 317.516 129.513Z" fill="#263238"/>
<path d="M311.339 121.308C311.721 121.634 313.66 119.855 316.649 119.548C319.629 119.198 321.984 120.504 322.27 120.104C322.412 119.926 321.992 119.309 320.965 118.714C319.952 118.121 318.278 117.617 316.418 117.821C314.559 118.028 313.065 118.877 312.239 119.674C311.394 120.476 311.152 121.164 311.339 121.308Z" fill="#263238"/>
<path d="M343.909 127.271C344.012 128.742 345.343 129.869 346.882 129.79C348.418 129.711 349.583 128.457 349.48 126.985C349.377 125.514 348.046 124.386 346.51 124.464C344.971 124.544 343.807 125.8 343.909 127.271Z" fill="#263238"/>
<path d="M340.73 119.432C341.113 119.757 343.055 117.979 346.042 117.672C349.022 117.323 351.377 118.628 351.663 118.228C351.804 118.049 351.389 117.433 350.357 116.839C349.345 116.245 347.67 115.741 345.81 115.945C343.95 116.152 342.457 117.002 341.631 117.798C340.789 118.6 340.545 119.288 340.73 119.432Z" fill="#263238"/>
<path d="M332.433 143.519C332.429 143.348 330.538 143.222 327.488 143.155C326.717 143.157 325.979 143.081 325.795 142.574C325.557 142.042 325.79 141.186 326.066 140.259C326.589 138.338 327.136 136.323 327.709 134.212C329.971 125.611 331.522 118.571 331.175 118.483C330.827 118.395 328.713 125.295 326.452 133.896C325.913 136.015 325.397 138.035 324.907 139.968C324.71 140.865 324.317 141.901 324.827 143.004C325.092 143.553 325.696 143.907 326.199 143.988C326.704 144.085 327.134 144.049 327.514 144.031C330.56 143.874 332.44 143.69 332.433 143.519Z" fill="#263238"/>
<path d="M341.444 144.658C340.955 144.681 341.29 147.925 338.757 150.519C336.23 153.12 332.735 153.12 332.757 153.576C332.734 153.784 333.593 154.125 335.057 154.011C336.493 153.909 338.535 153.228 340.085 151.642C341.629 150.051 342.159 148.092 342.129 146.75C342.11 145.381 341.663 144.616 341.444 144.658Z" fill="#263238"/>
<path d="M339.617 107.291C339.997 108.073 342.94 107.373 346.489 107.426C350.04 107.408 352.975 108.136 353.363 107.359C353.533 106.989 352.96 106.276 351.734 105.61C350.519 104.944 348.633 104.388 346.503 104.376C344.375 104.368 342.483 104.905 341.261 105.559C340.03 106.212 339.45 106.919 339.617 107.291Z" fill="#263238"/>
<path d="M311.526 111.247C312.123 111.87 314.107 110.949 316.578 110.655C319.038 110.275 321.196 110.629 321.604 109.868C321.779 109.502 321.377 108.857 320.394 108.311C319.424 107.766 317.859 107.402 316.164 107.633C314.469 107.866 313.061 108.636 312.273 109.423C311.473 110.211 311.26 110.94 311.526 111.247Z" fill="#263238"/>
<path d="M373.653 127.105C373.969 126.927 386.595 121.746 387.571 135.082C388.547 148.418 374.957 146.647 374.906 146.267C374.855 145.886 373.653 127.105 373.653 127.105Z" fill="#FFBF9D"/>
<path d="M378.61 140.917C378.665 140.87 378.855 141.062 379.26 141.213C379.656 141.361 380.323 141.433 380.999 141.122C382.37 140.502 383.393 138.179 383.281 135.77C383.226 134.554 382.887 133.417 382.387 132.492C381.908 131.546 381.227 130.911 380.509 130.836C379.791 130.725 379.32 131.186 379.185 131.573C379.034 131.959 379.138 132.219 379.068 132.247C379.033 132.283 378.766 132.045 378.832 131.486C378.868 131.217 379.001 130.891 379.296 130.612C379.597 130.329 380.058 130.161 380.556 130.179C381.59 130.175 382.585 131.053 383.134 132.069C383.741 133.086 384.15 134.361 384.212 135.728C384.323 138.421 383.131 141.037 381.244 141.735C380.324 142.049 379.521 141.823 379.094 141.538C378.657 141.237 378.565 140.944 378.61 140.917Z" fill="#FF9A6C"/>
<path d="M313.543 91.015C311.307 89.963 317.338 82.552 322.49 79.802C330.277 75.646 342.381 72.617 349.912 74.239C358.978 76.19 366.661 80.145 371.653 87.961C376.645 95.777 378.933 105.112 379.269 114.38C379.371 117.208 379.268 120.17 377.914 122.654C376.24 125.724 372.783 127.813 373.202 131.872C373.355 133.356 373.027 134.884 372.078 136.035C369.804 138.79 366.66 136.541 365.129 134.183C361.859 129.145 361.131 122.926 360.488 116.955C360.03 112.711 359.578 108.375 360.515 104.21C361.024 101.944 361.938 99.775 362.321 97.484C362.704 95.193 362.471 92.636 360.947 90.883C360.699 90.598 360.297 90.244 359.792 89.856C355.8 86.787 350.446 86.136 345.817 88.117C338.474 91.259 325.897 96.056 322.381 93.721C317.323 90.363 316.016 88.045 316.016 88.045L313.543 91.015Z" fill="#263238"/>
<path d="M299.922 208.083C299.149 209.153 288.218 212.781 284.072 219.689C279.926 226.597 275.823 257.618 275.823 257.618L273.184 278.039C278.384 286.265 285.358 297.155 292.759 304.836L299.922 208.083Z" fill="#455A64"/>
<g opacity="0.3">
<path d="M382.047 238.033C382.507 242.195 382.977 246.403 384.409 250.338C385.841 254.273 388.351 257.969 392.015 259.995C393.55 260.844 395.281 261.404 396.565 262.598C397.945 263.881 398.64 265.742 399.889 267.153C401.342 268.794 403.434 269.708 405.5 270.439C411.614 272.604 417.637 273.638 424.12 273.405C424.316 271.265 424.33 263.403 424.526 261.263L382.047 238.033Z" fill="black"/>
</g>
<path d="M415.699 193.063C415.699 193.063 429.482 197.139 433.518 203.01C437.555 208.882 444.711 231.636 446.179 235.856C447.647 240.076 446.363 249.862 443.61 256.897C440.858 263.931 436.081 269.987 427.827 270.904C419.572 271.821 406.535 267.05 403.603 263.931C400.672 260.811 399.444 253.81 399.444 253.81C403.109 253.166 406.728 252.258 410.263 251.096" fill="#455A64"/>
<path d="M410.264 251.096C410.266 251.102 410.208 251.127 410.092 251.171C409.955 251.22 409.786 251.281 409.572 251.358C409.11 251.516 408.421 251.745 407.512 252.019C405.694 252.564 402.993 253.302 399.469 253.944L399.58 253.786C399.889 255.345 400.334 257.056 400.987 258.843C401.315 259.735 401.693 260.652 402.18 261.547C402.668 262.436 403.238 263.34 404.027 264.061C404.817 264.779 405.793 265.363 406.815 265.899C407.832 266.451 408.928 266.926 410.058 267.389C412.326 268.303 414.779 269.09 417.38 269.707C419.981 270.309 422.744 270.755 425.604 270.764C426.32 270.796 427.034 270.7 427.757 270.664C428.47 270.546 429.2 270.481 429.906 270.28C431.336 269.956 432.74 269.422 434.047 268.674C436.685 267.209 438.92 264.936 440.616 262.261C442.335 259.592 443.592 256.563 444.52 253.398C445.239 250.967 445.768 248.509 446.112 246.065C446.461 243.623 446.632 241.183 446.471 238.813C446.379 237.619 446.158 236.5 445.755 235.39C445.383 234.27 445.015 233.161 444.65 232.063C443.917 229.871 443.2 227.725 442.5 225.631C441.081 221.451 439.681 217.496 438.278 213.833C436.849 210.188 435.516 206.759 433.846 203.897C433.031 202.458 431.915 201.329 430.734 200.415C429.575 199.475 428.372 198.726 427.229 198.065C424.93 196.758 422.84 195.831 421.121 195.111C419.398 194.397 418.037 193.899 417.11 193.571C416.666 193.415 416.317 193.292 416.055 193.2C415.818 193.116 415.696 193.071 415.699 193.062C415.701 193.054 415.828 193.081 416.071 193.149C416.337 193.229 416.692 193.336 417.143 193.471C418.082 193.767 419.457 194.235 421.196 194.923C422.932 195.616 425.042 196.519 427.372 197.811C428.531 198.465 429.752 199.209 430.94 200.155C432.141 201.065 433.317 202.238 434.161 203.705C435.881 206.607 437.229 210.025 438.681 213.676C440.105 217.341 441.522 221.296 442.954 225.475C443.66 227.568 444.383 229.714 445.122 231.905C445.488 233.001 445.858 234.108 446.232 235.226C446.64 236.335 446.89 237.567 446.979 238.772C447.147 241.201 446.975 243.668 446.624 246.137C446.278 248.608 445.746 251.088 445.019 253.546C444.081 256.746 442.806 259.819 441.05 262.541C439.318 265.268 437.018 267.607 434.293 269.113C432.943 269.882 431.492 270.43 430.02 270.76C429.291 270.964 428.542 271.031 427.809 271.149C427.068 271.185 426.333 271.28 425.604 271.246C422.687 271.228 419.898 270.765 417.275 270.148C414.652 269.515 412.185 268.71 409.9 267.776C408.761 267.302 407.657 266.816 406.627 266.25C405.592 265.697 404.605 265.103 403.77 264.336C402.939 263.564 402.362 262.627 401.869 261.714C401.378 260.794 401.004 259.862 400.679 258.956C400.034 257.14 399.605 255.419 399.31 253.835L399.285 253.7L399.421 253.677C402.94 253.076 405.644 252.382 407.471 251.882C408.361 251.628 409.052 251.431 409.549 251.29C409.767 251.227 409.94 251.178 410.08 251.138C410.201 251.104 410.262 251.09 410.264 251.096Z" fill="#263238"/>
<path d="M435.548 243.728C435.446 243.752 435.133 242.031 433.975 239.493C432.845 236.958 430.813 233.608 427.756 230.664C426.234 229.185 424.542 228.061 422.923 227.223C422.507 227.037 422.101 226.855 421.705 226.678C421.311 226.496 420.895 226.42 420.51 226.29C419.742 226.009 418.986 225.942 418.303 225.834C418.133 225.808 417.966 225.782 417.802 225.757C417.639 225.758 417.479 225.758 417.322 225.758C417.015 225.758 416.721 225.758 416.441 225.759C415.886 225.725 415.42 225.826 415.035 225.881C414.265 225.993 413.83 226.04 413.821 226.005C413.812 225.97 414.229 225.857 415.001 225.681C415.387 225.594 415.859 225.462 416.425 225.468C416.712 225.455 417.013 225.441 417.328 225.427C417.489 225.421 417.654 225.414 417.822 225.407C417.991 225.427 418.163 225.446 418.339 225.467C419.045 225.553 419.829 225.604 420.627 225.874C421.026 225.998 421.46 226.071 421.868 226.25C422.279 226.426 422.701 226.606 423.133 226.791C424.813 227.628 426.561 228.775 428.115 230.286C431.239 233.295 433.253 236.737 434.313 239.345C434.585 239.997 434.82 240.591 434.97 241.133C435.134 241.67 435.291 242.126 435.354 242.518C435.513 243.293 435.583 243.721 435.548 243.728Z" fill="#263238"/>
<path d="M443.068 231.363C442.955 231.407 442.58 229.592 440.99 227.166C439.433 224.781 436.455 221.787 432.207 220.518C427.976 219.23 423.869 219.628 421.001 219.903C419.636 220.066 418.488 220.204 417.574 220.313C416.764 220.412 416.313 220.453 416.307 220.417C416.301 220.382 416.741 220.274 417.542 220.113C418.343 219.954 419.507 219.74 420.956 219.538C423.826 219.171 427.992 218.696 432.361 220.021C434.527 220.68 436.43 221.789 437.918 223.057C439.424 224.313 440.52 225.72 441.3 226.969C442.078 228.225 442.523 229.342 442.77 230.125C443.022 230.906 443.094 231.357 443.068 231.363Z" fill="#263238"/>
<path d="M432.676 216.568C432.64 216.738 429.047 215.581 424.484 215.784C419.917 215.939 416.428 217.375 416.378 217.208C416.355 217.152 417.19 216.722 418.635 216.262C420.076 215.8 422.144 215.358 424.463 215.263C426.782 215.175 428.877 215.454 430.351 215.801C431.828 216.147 432.695 216.511 432.676 216.568Z" fill="#263238"/>
<path d="M410.377 196.503C410.459 196.516 410.26 197.909 410.099 200.167C409.938 202.424 409.863 205.557 410.173 208.993C410.456 212.298 411.054 215.26 411.582 217.415L411.221 217.531C410.812 216.375 410.49 215.437 410.279 214.784C410.068 214.131 409.968 213.763 410.003 213.75C410.038 213.737 410.205 214.079 410.476 214.71C410.747 215.341 411.123 216.259 411.576 217.398L411.215 217.514C410.597 215.366 409.939 212.38 409.654 209.04C409.341 205.567 409.476 202.4 409.732 200.135C409.858 199.002 410.006 198.09 410.129 197.465C410.255 196.839 410.342 196.497 410.377 196.503Z" fill="#263238"/>
<path d="M390.892 170.846C390.892 170.846 383.738 170.846 382.841 179.443C382.152 186.042 382.841 192.449 382.841 195.339C382.841 198.229 381.568 208.506 381.568 208.506C381.568 208.506 376.687 212.836 376.77 218.037C376.853 223.263 380.57 224.861 380.57 224.861C380.57 224.861 378.299 229.816 382.634 234.357C382.634 234.357 380.555 239.151 382.264 242.379C383.587 244.878 386.556 245.712 386.556 245.712C386.556 245.712 384.441 250.436 389.517 252.422C392.517 253.596 396.952 253.335 396.952 253.335L402.29 253.232L406.995 255.828C406.995 255.828 415.046 252.318 415.253 247.57C415.459 242.822 415.459 242.822 415.459 242.822C415.459 242.822 413.188 234.977 412.982 232.5C412.776 230.023 414.84 224.036 413.601 221.352C412.362 218.668 408.027 217.091 408.44 213.338C408.853 209.585 408.027 207.52 406.169 205.456C404.311 203.392 396.099 199.263 396.099 199.263C396.099 199.263 393.988 193.276 393.988 189.147C393.989 185.017 398.118 172.424 390.892 170.846Z" fill="#FFBF9D"/>
<path d="M395.712 200.827C395.748 200.889 394.988 201.376 393.732 202.112C392.475 202.848 390.721 203.833 388.768 204.894C386.814 205.955 385.031 206.89 383.729 207.543C382.427 208.196 381.603 208.569 381.569 208.506C381.535 208.443 382.295 207.956 383.552 207.22C384.809 206.484 386.562 205.499 388.515 204.439C390.467 203.379 392.248 202.445 393.551 201.791C394.852 201.138 395.676 200.764 395.712 200.827Z" fill="#FF9A6C"/>
<path d="M400.408 216.991C400.429 217.02 400.206 217.217 399.784 217.55C399.364 217.886 398.729 218.336 397.922 218.859C396.31 219.907 393.964 221.188 391.218 222.243C388.469 223.292 385.866 223.905 383.967 224.202C383.017 224.352 382.244 224.441 381.707 224.471C381.171 224.506 380.873 224.508 380.869 224.472C380.86 224.389 382.034 224.229 383.9 223.84C385.766 223.454 388.318 222.793 391.032 221.757C393.743 220.716 396.084 219.504 397.731 218.545C399.378 217.588 400.359 216.924 400.408 216.991Z" fill="#FF9A6C"/>
<path d="M406.549 211.85C406.679 211.895 406.411 212.813 405.563 213.579C404.721 214.352 403.782 214.533 403.749 214.4C403.699 214.258 404.464 213.886 405.212 213.194C405.97 212.515 406.412 211.787 406.549 211.85Z" fill="#FF9A6C"/>
<path d="M403.604 231.151C403.625 231.212 402.495 231.671 400.611 232.246C398.728 232.822 396.082 233.485 393.112 233.965C390.14 234.441 387.419 234.641 385.451 234.685C383.482 234.73 382.265 234.649 382.265 234.584C382.265 234.505 383.479 234.456 385.433 234.317C387.387 234.18 390.08 233.923 393.029 233.451C395.976 232.975 398.614 232.374 400.512 231.891C402.411 231.41 403.579 231.076 403.604 231.151Z" fill="#FF9A6C"/>
<path d="M410.137 229.961C410.066 229.918 410.38 229.372 410.686 228.43C410.995 227.494 411.254 226.128 411.077 224.64C410.899 223.151 410.325 221.884 409.804 221.048C409.284 220.204 408.851 219.748 408.91 219.689C408.95 219.643 409.484 220.011 410.109 220.841C410.733 221.66 411.404 222.987 411.594 224.579C411.784 226.17 411.444 227.618 411.031 228.56C410.619 229.513 410.187 229.996 410.137 229.961Z" fill="#FF9A6C"/>
<path d="M403.974 245.626C403.987 245.69 403.025 245.961 401.432 246.226C399.841 246.492 397.613 246.722 395.146 246.717C392.678 246.708 390.452 246.466 388.862 246.191C387.271 245.917 386.31 245.64 386.323 245.577C386.338 245.5 387.322 245.648 388.913 245.826C390.504 246.006 392.707 246.187 395.147 246.196C397.586 246.201 399.79 246.032 401.382 245.861C402.974 245.691 403.959 245.548 403.974 245.626Z" fill="#FF9A6C"/>
<path d="M391.278 189.264C391.307 189.319 390.954 189.588 390.286 189.827C389.622 190.067 388.629 190.235 387.546 190.108C386.463 189.977 385.537 189.581 384.948 189.192C384.354 188.803 384.074 188.459 384.116 188.412C384.206 188.282 385.567 189.369 387.608 189.591C389.642 189.855 391.221 189.117 391.278 189.264Z" fill="#FF9A6C"/>
<path d="M411.623 230.566C411.654 230.563 411.713 230.835 411.738 231.338C411.753 231.841 411.688 232.572 411.49 233.447C411.297 234.322 410.967 235.332 410.652 236.448C410.352 237.559 410.06 238.817 410.278 240.089C410.45 241.354 411.397 242.381 411.546 243.666C411.715 244.93 411.216 246 410.76 246.759C410.284 247.53 409.806 248.076 409.469 248.442C409.128 248.806 408.92 248.987 408.894 248.965C408.814 248.904 409.581 248.088 410.44 246.577C410.841 245.824 411.247 244.825 411.071 243.735C410.95 242.649 409.992 241.625 409.764 240.179C409.524 238.762 409.862 237.438 410.19 236.314C410.537 235.185 410.899 234.2 411.132 233.356C411.632 231.671 411.534 230.572 411.623 230.566Z" fill="#FF9A6C"/>
<path d="M414.312 236.848C414.346 236.84 414.468 237.173 414.647 237.787C414.826 238.402 415.066 239.297 415.292 240.423C415.511 241.549 415.733 242.906 415.77 244.437C415.801 245.956 415.651 247.7 414.866 249.336C414.061 250.948 412.902 252.211 411.792 253.251C410.667 254.284 409.563 255.097 408.616 255.744C407.667 256.388 406.873 256.867 406.314 257.18C405.756 257.494 405.435 257.646 405.417 257.616C405.373 257.545 406.572 256.792 408.403 255.444C409.314 254.765 410.381 253.931 411.464 252.901C412.533 251.866 413.64 250.627 414.398 249.108C415.131 247.583 415.296 245.923 415.291 244.442C415.282 242.952 415.102 241.609 414.931 240.487C414.562 238.245 414.229 236.868 414.312 236.848Z" fill="#263238"/>
<path d="M338.856 203.563C338.833 203.59 338.422 203.281 337.698 202.697C336.907 202.042 335.889 201.2 334.668 200.189C334.026 199.647 333.332 199.062 332.592 198.438C332.221 198.124 331.844 197.803 331.413 197.591C330.986 197.379 330.503 197.324 330.074 197.545C329.211 197.996 328.635 199.104 327.898 200.023C327.186 200.983 326.449 201.975 325.695 202.992C324.486 204.61 323.323 206.164 322.251 207.598L321.604 208.463L321.809 207.405C322.512 203.787 323.491 200.768 324.298 198.681C324.701 197.636 325.056 196.82 325.314 196.268C325.574 195.717 325.731 195.426 325.757 195.437C325.784 195.449 325.677 195.761 325.466 196.331C325.256 196.901 324.948 197.731 324.587 198.785C323.866 200.89 322.957 203.904 322.295 207.496L321.854 207.303C322.919 205.864 324.075 204.305 325.277 202.681C326.034 201.667 326.773 200.676 327.489 199.718C327.848 199.24 328.201 198.77 328.547 198.31C328.904 197.851 329.304 197.383 329.869 197.112C330.436 196.822 331.129 196.918 331.617 197.181C332.119 197.438 332.51 197.791 332.876 198.112C333.601 198.753 334.281 199.354 334.91 199.911C336.087 200.972 337.069 201.856 337.832 202.544C338.513 203.174 338.879 203.536 338.856 203.563Z" fill="#263238"/>
<path d="M381.081 195.106C381.091 195.12 380.957 195.24 380.69 195.455C380.374 195.701 379.984 196.005 379.509 196.376C378.41 197.203 376.92 198.324 375.103 199.691C371.294 202.495 366.126 206.298 360.39 210.52L360.167 210.684L360.017 210.449C359.902 210.268 359.777 210.073 359.653 209.878C356.943 205.6 354.411 201.604 352.269 198.222L352.539 198.309C349.008 199.713 346.233 201.252 344.343 202.396C343.397 202.969 342.669 203.443 342.171 203.764C341.675 204.088 341.406 204.255 341.392 204.236C341.379 204.218 341.621 204.013 342.093 203.653C342.568 203.295 343.275 202.786 344.206 202.177C346.065 200.963 348.828 199.355 352.373 197.896L352.543 197.826L352.643 197.983C354.804 201.352 357.358 205.335 360.092 209.597C360.217 209.793 360.341 209.988 360.456 210.169L360.083 210.099C365.855 205.926 371.055 202.167 374.888 199.396C376.744 198.084 378.267 197.007 379.39 196.213C379.888 195.874 380.296 195.595 380.627 195.37C380.916 195.184 381.071 195.092 381.081 195.106Z" fill="#263238"/>
<path d="M291.334 234.875C291.352 234.875 291.37 235.118 291.389 235.581C291.403 236.096 291.421 236.768 291.444 237.605C291.478 239.423 291.525 241.95 291.583 245.048C291.702 251.332 291.953 260.01 292.279 269.596C292.604 279.185 292.798 287.873 292.823 294.161C292.833 297.305 292.827 299.849 292.797 301.607C292.779 302.444 292.765 303.116 292.754 303.631C292.738 304.094 292.722 304.337 292.704 304.337C292.686 304.337 292.668 304.094 292.649 303.631C292.635 303.116 292.617 302.444 292.594 301.607C292.56 299.789 292.513 297.262 292.455 294.165C292.336 287.881 292.085 279.202 291.759 269.613C291.434 260.027 291.241 251.341 291.216 245.052C291.206 241.908 291.212 239.363 291.242 237.605C291.26 236.768 291.274 236.095 291.285 235.58C291.3 235.118 291.316 234.875 291.334 234.875Z" fill="#263238"/>
<path d="M339.185 325.204C339.176 325.205 339.159 325.107 339.134 324.916C339.109 324.696 339.077 324.416 339.038 324.067C338.961 323.282 338.854 322.188 338.718 320.797C338.44 317.957 338.12 313.839 337.802 308.746C337.474 303.653 337.208 297.582 337.035 290.836C336.889 284.09 336.852 276.67 337.011 268.884C337.19 261.096 337.55 253.683 337.989 246.948C338.455 240.215 338.984 234.16 339.533 229.087C340.073 224.013 340.571 219.913 340.972 217.088C341.169 215.704 341.323 214.616 341.434 213.835C341.489 213.488 341.533 213.21 341.567 212.991C341.6 212.801 341.621 212.705 341.63 212.706C341.639 212.707 341.635 212.806 341.62 212.998C341.599 213.219 341.572 213.499 341.538 213.849C341.45 214.632 341.328 215.725 341.173 217.113C340.834 219.945 340.392 224.049 339.899 229.124C339.398 234.199 338.907 240.251 338.467 246.979C338.055 253.709 337.71 261.115 337.531 268.895C337.372 276.673 337.395 284.085 337.514 290.825C337.661 297.565 337.888 303.633 338.168 308.724C338.439 313.816 338.703 317.935 338.919 320.78C339.014 322.174 339.088 323.271 339.142 324.058C339.16 324.409 339.175 324.69 339.187 324.912C339.195 325.104 339.194 325.203 339.185 325.204Z" fill="#263238"/>
<path d="M309.389 161.516C309.389 161.516 309.036 161.763 308.333 162.224C307.621 162.687 306.575 163.367 305.207 164.256C303.834 165.15 302.246 166.416 300.307 167.821C299.352 168.543 298.393 169.409 297.329 170.286C296.801 170.73 296.257 171.188 295.695 171.66C295.142 172.142 294.611 172.682 294.044 173.214C289.499 177.445 284.336 183.125 279.58 190.577C278.997 191.515 278.404 192.468 277.801 193.438C277.174 194.394 276.688 195.453 276.111 196.481C275.566 197.526 274.959 198.561 274.44 199.66C273.935 200.766 273.423 201.889 272.903 203.027C272.65 203.599 272.366 204.163 272.133 204.753C271.907 205.346 271.68 205.944 271.451 206.545C271 207.75 270.516 208.962 270.074 210.207C269.334 212.744 268.4 215.299 267.842 218.024C266.456 223.407 265.692 229.208 265.383 235.258C265.034 241.313 265.395 247.65 266.435 254.095C268.54 266.963 273.617 280.363 282.247 292.274C290.765 304.221 302.804 314.613 317.262 321.443C331.688 328.315 348.57 331.285 365.429 329.538C382.313 327.789 398.128 321.143 410.796 311.428C413.99 309.025 416.922 306.353 419.74 303.627C420.418 302.919 421.094 302.213 421.769 301.508C422.452 300.811 423.111 300.095 423.735 299.351C424.371 298.618 425.005 297.886 425.638 297.156C426.236 296.397 426.832 295.64 427.426 294.886C432.18 288.84 435.93 282.246 438.893 275.536C441.851 268.812 443.809 261.87 445.015 255.024C445.635 251.6 445.976 248.184 446.203 244.817C446.31 243.133 446.308 241.457 446.365 239.798C446.333 238.139 446.243 236.493 446.186 234.861C446.154 234.045 446.122 233.233 446.09 232.424C446.041 231.617 445.909 230.819 445.824 230.022C445.631 228.429 445.441 226.85 445.252 225.286C445.004 223.731 444.645 222.209 444.352 220.691C444.04 219.177 443.779 217.665 443.309 216.221C442.89 214.764 442.475 213.322 442.064 211.894C441.88 211.173 441.627 210.48 441.358 209.795C441.1 209.107 440.843 208.423 440.587 207.742C440.054 206.39 439.619 205.014 439.022 203.724C438.42 202.436 437.824 201.163 437.236 199.905C432.408 189.884 426.208 181.785 419.983 175.534C413.736 169.269 407.451 164.876 402.156 161.642C400.808 160.868 399.535 160.136 398.339 159.449C397.751 159.087 397.144 158.808 396.562 158.534C395.98 158.257 395.419 157.99 394.878 157.732C393.797 157.217 392.8 156.741 391.887 156.306C390.984 155.848 390.1 155.588 389.345 155.272C387.824 154.682 386.661 154.232 385.869 153.925C385.087 153.619 384.69 153.449 384.69 153.449C384.69 153.449 385.098 153.585 385.887 153.875C386.684 154.171 387.854 154.606 389.384 155.175C390.143 155.483 391.032 155.736 391.939 156.187C392.857 156.616 393.859 157.085 394.945 157.593C395.488 157.847 396.052 158.112 396.637 158.385C397.223 158.656 397.832 158.932 398.424 159.291C399.626 159.973 400.906 160.699 402.261 161.468C407.584 164.683 413.903 169.063 420.19 175.329C426.455 181.58 432.699 189.692 437.568 199.744C438.162 201.006 438.762 202.283 439.369 203.575C439.97 204.87 440.411 206.25 440.948 207.607C441.206 208.29 441.465 208.977 441.726 209.667C441.997 210.354 442.252 211.051 442.439 211.774C442.854 213.207 443.274 214.655 443.698 216.118C444.172 217.568 444.437 219.086 444.753 220.607C445.05 222.131 445.413 223.66 445.664 225.221C445.856 226.792 446.051 228.378 446.247 229.978C446.334 230.779 446.468 231.58 446.518 232.391C446.551 233.204 446.585 234.02 446.619 234.839C446.679 236.478 446.771 238.132 446.805 239.799C446.75 241.466 446.754 243.15 446.649 244.842C446.426 248.225 446.087 251.659 445.468 255.101C444.264 261.984 442.302 268.964 439.335 275.727C436.362 282.476 432.596 289.108 427.821 295.191C427.224 295.95 426.625 296.712 426.024 297.475C425.388 298.209 424.751 298.945 424.112 299.683C423.485 300.432 422.823 301.152 422.136 301.853C421.458 302.562 420.778 303.273 420.097 303.985C417.266 306.728 414.318 309.416 411.107 311.834C398.373 321.609 382.466 328.298 365.485 330.057C348.531 331.815 331.551 328.823 317.046 321.906C302.509 315.031 290.411 304.573 281.859 292.555C273.194 280.573 268.107 267.098 266.01 254.165C264.974 247.687 264.621 241.321 264.982 235.24C265.302 229.164 266.082 223.34 267.484 217.938C268.051 215.203 268.994 212.639 269.743 210.095C270.189 208.846 270.678 207.63 271.134 206.422C271.365 205.819 271.595 205.22 271.823 204.625C272.058 204.033 272.345 203.468 272.6 202.894C273.125 201.753 273.642 200.627 274.151 199.519C274.674 198.417 275.286 197.38 275.836 196.333C276.418 195.303 276.909 194.242 277.54 193.285C278.148 192.314 278.746 191.359 279.334 190.42C284.129 182.96 289.329 177.285 293.905 173.067C294.476 172.537 295.011 171.999 295.567 171.519C296.132 171.049 296.681 170.593 297.212 170.151C298.283 169.279 299.249 168.417 300.21 167.7C302.162 166.305 303.762 165.051 305.146 164.17C306.528 163.299 307.583 162.633 308.302 162.179C309.017 161.733 309.389 161.516 309.389 161.516Z" fill="#263238"/>
</svg>
