<svg width="739" height="495" viewBox="0 0 739 495" fill="none" xmlns="http://www.w3.org/2000/svg">
<rect width="739" height="495" fill="#F4F9FD"/>
<path d="M229.495 198.481C256.442 185.416 290.392 188.762 314.357 206.846" stroke="#E0E0E0" stroke-width="8" stroke-miterlimit="10" stroke-linecap="round" stroke-linejoin="round"/>
<path d="M314.77 197.743L305.531 210.981L321.153 211.99L314.77 197.743Z" fill="#E0E0E0"/>
<path d="M411.811 404.594C432.912 414.007 456.481 418.737 479.234 414.995C501.986 411.253 523.744 398.398 535.745 378.426" stroke="#E0E0E0" stroke-width="8" stroke-miterlimit="10" stroke-linecap="round" stroke-linejoin="round"/>
<path d="M527.781 376.695L540.309 385.787L541.98 371.506L527.781 376.695Z" fill="#E0E0E0"/>
<path d="M87.2601 366.264C87.1123 366.61 86.6315 365.946 86.7842 363.953C86.8769 362.748 87.1537 361.255 87.4799 360.086C88.7677 355.466 88.1243 352.276 89.4121 347.656C91.8705 338.836 96.7785 327.857 104.728 322.576C107.485 320.744 111.857 319.804 113.851 322.358C115.346 324.272 114.517 326.939 113.634 329.16C112.246 332.648 110.859 336.136 109.472 339.624C107.291 345.105 105.081 350.642 101.614 355.511C98.1471 360.379 93.2569 364.591 87.2601 366.264Z" fill="#EBEBEB"/>
<path d="M82.8123 381.406C83.7356 377.121 85.2372 372.973 86.9832 368.968C89.3953 363.436 92.5563 358.386 95.3418 353.06C97.8928 348.182 99.8408 343.018 102.029 337.971C102.979 335.781 103.965 333.589 105.181 331.536C105.879 330.359 106.733 329.342 107.542 328.252C109.245 325.958 110.942 323.659 112.64 321.362C112.926 320.976 112.285 320.602 112.002 320.984C110.43 323.108 108.858 325.233 107.285 327.357C106.608 328.272 105.855 329.12 105.223 330.069C103.995 331.911 103.029 333.929 102.118 335.945C99.8201 341.025 97.8948 346.272 95.4196 351.27C92.7504 356.66 89.4712 361.688 86.9724 367.179C84.9249 371.678 83.1444 376.354 82.0989 381.205C81.9984 381.677 82.7108 381.878 82.8123 381.406Z" fill="#E0E0E0"/>
<path d="M69.8059 375.756C72.2505 365.682 70.7006 354.805 65.5197 345.679C60.3398 336.553 51.5714 329.255 41.2746 325.497C39.2005 324.74 36.8505 324.126 34.7911 324.918C32.5919 325.764 31.3395 328.068 31.2439 330.289C31.1484 332.51 32.0056 334.667 32.9909 336.69C35.9489 342.764 40.1464 348.226 44.3164 353.644C48.4084 358.96 52.4995 364.276 56.5916 369.592C57.8933 371.283 59.2363 373.013 61.0966 374.161C62.9569 375.308 67.856 376.765 69.8059 375.756Z" fill="#EBEBEB"/>
<path d="M80.2604 348.56C82.7907 345.959 84.992 336.412 84.9447 334.804C84.7565 328.449 85.6157 330.407 85.4275 324.052C85.0678 311.919 80.7225 296.524 72.1028 287.444C69.1123 284.294 63.7423 281.85 60.335 284.604C57.782 286.668 58.0007 290.362 58.4343 293.491C59.1151 298.406 59.796 303.32 60.4778 308.235C61.5479 315.958 62.6397 323.762 65.575 331.05C68.5103 338.339 73.5049 345.174 80.7481 349.025" fill="#EBEBEB"/>
<path d="M79.7992 399.448C81.8053 393.617 79.1341 387.54 75.6293 382.92C71.6052 377.615 66.4263 373.299 63.2466 367.346C60.1044 361.462 58.6707 354.868 56.2251 348.693C54.5136 344.372 51.6394 340.592 48.3966 337.335C43.8858 332.805 38.4054 329.172 32.3219 327.258C31.8667 327.115 31.6716 327.838 32.1258 327.981C37.6289 329.712 42.6177 332.887 46.829 336.85C50.2067 340.027 53.3253 343.797 55.1925 348.108C57.6075 353.683 58.8993 359.691 61.3942 365.24C63.9925 371.019 68.1506 375.365 72.2742 380.032C76.7949 385.148 81.5639 392.045 79.0858 399.249C78.9292 399.705 79.6425 399.902 79.7992 399.448Z" fill="#E0E0E0"/>
<path d="M85.3141 401.276C84.5367 392.677 83.1267 384.159 82.0822 375.592C81.5324 371.079 81.0939 366.551 80.8614 362.009C80.6151 357.211 80.754 352.415 80.6042 347.616C80.3136 338.312 79.0809 329.034 76.9506 319.981C75.849 315.3 74.505 310.678 72.9245 306.141C71.4899 302.023 69.9607 297.811 67.9959 293.917C66.2184 290.393 64.2024 286.975 62.3095 283.512C62.079 283.09 61.4405 283.468 61.671 283.891C63.4693 287.182 65.2685 290.473 67.0667 293.763C68.7132 296.775 69.9163 300.11 71.1204 303.323C72.7807 307.753 74.2124 312.27 75.4105 316.851C77.8069 326.013 79.2671 335.423 79.7529 344.89C79.9982 349.679 79.8465 354.47 80.0061 359.261C80.1559 363.743 80.5116 368.214 81.0033 372.67C82.0576 382.223 83.709 391.699 84.5751 401.275C84.6185 401.752 85.3575 401.757 85.3141 401.276Z" fill="#E0E0E0"/>
<path d="M61.1291 379.923H101.429C101.429 379.923 104.37 386.795 98.488 388.72L94.8108 411.261H67.0125L63.9235 389.132C63.9235 389.132 59.3644 387.345 61.1291 379.923Z" fill="#E6E6E6"/>
<path d="M63.9235 389.132C75.2549 389.132 87.1557 388.72 98.487 388.72L98.1087 391.04H64.1896L63.9235 389.132Z" fill="#E0E0E0"/>
<path d="M95.9488 146.258H59.3821V157.784H95.9488V146.258Z" fill="#F0F0F0"/>
<path d="M202.984 69.3693H166.417V80.8953H202.984V69.3693Z" fill="#F0F0F0"/>
<path d="M431.594 69.1193H395.027V80.6453H431.594V69.1193Z" fill="#F0F0F0"/>
<path d="M698.92 175.03H662.354V186.556H698.92V175.03Z" fill="#F0F0F0"/>
<path d="M680.638 163.895H644.071V175.421H680.638V163.895Z" fill="#EBEBEB"/>
<path d="M597.819 393.571H561.253V405.097H597.819V393.571Z" fill="#E0E0E0"/>
<path d="M458.137 270.784H421.57V282.31H458.137V270.784Z" fill="#EBEBEB"/>
<path d="M474.81 259.259H438.243V270.785H474.81V259.259Z" fill="#F0F0F0"/>
<path d="M136.411 248.928H99.8448V260.454H136.411V248.928Z" fill="#E0E0E0"/>
<path d="M267.414 312.944H230.847V324.47H267.414V312.944Z" fill="#F0F0F0"/>
<path d="M686.196 306.043H649.629V317.569H686.196V306.043Z" fill="#EBEBEB"/>
<path d="M636.537 255.724H599.97V267.25H636.537V255.724Z" fill="#F0F0F0"/>
<path d="M303.042 106.903H266.476V118.429H303.042V106.903Z" fill="#EBEBEB"/>
<path d="M285.727 118.559H246.884V130.085H285.727V118.559Z" fill="#F0F0F0"/>
<path d="M509.199 121.821H472.632V133.347H509.199V121.821Z" fill="#E0E0E0"/>
<path d="M526.147 132.411H489.581V143.937H526.147V132.411Z" fill="#F0F0F0"/>
<path d="M182.655 100.975H111.229V216.162H182.655V100.975Z" fill="#E0E0E0"/>
<path opacity="0.6" d="M177.285 106.346H116.6V210.79H177.285V106.346Z" fill="white"/>
<path d="M173.273 110.11H120.612V207.026H173.273V110.11Z" fill="white"/>
<path d="M161.878 122.822H132.714V193.202H161.878V122.822Z" fill="#E6E6E6"/>
<path opacity="0.6" d="M123.693 112.226C123.693 112.226 122.752 182.529 124.163 182.29C125.574 182.051 161.726 113.066 161.877 112.35L123.693 112.226Z" fill="white"/>
<path d="M630.882 103.091H559.456V218.278H630.882V103.091Z" fill="#E0E0E0"/>
<path opacity="0.6" d="M625.512 108.463H564.827V212.907H625.512V108.463Z" fill="white"/>
<path d="M621.5 112.226H568.839V209.142H621.5V112.226Z" fill="white"/>
<path d="M610.106 124.938H580.942V195.318H610.106V124.938Z" fill="#E6E6E6"/>
<path opacity="0.6" d="M571.92 114.342C571.92 114.342 570.979 184.645 572.39 184.406C573.801 184.167 609.953 115.182 610.105 114.466L571.92 114.342Z" fill="white"/>
<path d="M418.681 101.532H347.255V216.719H418.681V101.532Z" fill="#E0E0E0"/>
<path opacity="0.6" d="M413.311 106.903H352.626V211.347H413.311V106.903Z" fill="white"/>
<path d="M409.299 110.667H356.638V207.583H409.299V110.667Z" fill="white"/>
<path d="M397.903 123.378H368.739V193.758H397.903V123.378Z" fill="#E6E6E6"/>
<path opacity="0.6" d="M359.719 112.783C359.719 112.783 358.778 183.086 360.189 182.847C361.6 182.608 397.751 113.623 397.903 112.907L359.719 112.783Z" fill="white"/>
<path d="M663.853 349.879H485.757C482.573 349.879 479.981 347.249 479.981 344.017V80.7433C479.981 77.5113 482.573 74.8813 485.757 74.8813H663.853C667.037 74.8813 669.629 77.5103 669.629 80.7433V344.016C669.629 347.249 667.037 349.879 663.853 349.879ZM485.757 75.1323C482.708 75.1323 480.228 77.6503 480.228 80.7443V344.017C480.228 347.112 482.709 349.629 485.757 349.629H663.853C666.902 349.629 669.382 347.111 669.382 344.017V80.7433C669.382 77.6493 666.901 75.1313 663.853 75.1313L485.757 75.1323Z" fill="#E0E0E0"/>
<path d="M458.481 349.879H280.386C277.202 349.879 274.61 347.249 274.61 344.017V80.7433C274.61 77.5113 277.201 74.8813 280.386 74.8813H458.482C461.667 74.8813 464.259 77.5103 464.259 80.7433V344.016C464.258 347.249 461.666 349.879 458.481 349.879ZM280.386 75.1323C277.338 75.1323 274.857 77.6503 274.857 80.7443V344.017C274.857 347.112 277.338 349.629 280.386 349.629H458.482C461.532 349.629 464.012 347.111 464.012 344.017V80.7433C464.012 77.6493 461.531 75.1313 458.482 75.1313L280.386 75.1323Z" fill="#E0E0E0"/>
<path d="M253.242 349.879H75.1474C71.9628 349.879 69.3714 347.249 69.3714 344.017V80.7433C69.3714 77.5113 71.9618 74.8813 75.1474 74.8813H253.242C256.427 74.8813 259.019 77.5103 259.019 80.7433V344.016C259.019 347.249 256.428 349.879 253.242 349.879ZM75.1474 75.1323C72.0988 75.1323 69.6177 77.6503 69.6177 80.7443V344.017C69.6177 347.112 72.0988 349.629 75.1474 349.629H253.242C256.292 349.629 258.772 347.111 258.772 344.017V80.7433C258.772 77.6493 256.291 75.1313 253.242 75.1313L75.1474 75.1323Z" fill="#E0E0E0"/>
<path d="M739 410.949H0V411.069H739V410.949Z" fill="#E0E0E0"/>
<path d="M698.951 440.325H644.04V440.746H698.951V440.325Z" fill="#EBEBEB"/>
<path d="M502.196 444.89H487.783V445.311H502.196V444.89Z" fill="#EBEBEB"/>
<path d="M111.657 427.527H40.0489V427.948H111.657V427.527Z" fill="#EBEBEB"/>
<path d="M136.917 427.527H126.417V427.948H136.917V427.527Z" fill="#EBEBEB"/>
<path d="M326.341 434.631H171.04V435.052H326.341V434.631Z" fill="#EBEBEB"/>
<path d="M694.283 462.736C694.283 469.425 546.41 474.848 364 474.848C181.59 474.848 33.717 469.425 33.717 462.736C33.717 456.047 181.59 450.624 364 450.624C546.41 450.624 694.283 456.046 694.283 462.736Z" fill="#F5F5F5"/>
<path d="M342.711 79.7022C344.867 81.4432 347.097 83.0882 349.253 84.8292C349.625 85.1302 350.159 84.6022 349.783 84.2992C347.627 82.5582 345.397 80.9132 343.241 79.1722C342.869 78.8712 342.335 79.3992 342.711 79.7022Z" fill="#263238"/>
<path d="M364.366 83.0203C364.366 78.4673 364.366 73.9152 364.366 69.3623C364.366 68.8792 363.616 68.8792 363.616 69.3623C363.616 73.9152 363.616 78.4683 363.616 83.0203C363.616 83.5033 364.366 83.5043 364.366 83.0203Z" fill="#263238"/>
<path d="M378.622 85.2693C380.55 83.2673 382.479 81.2653 384.407 79.2623C384.742 78.9143 384.212 78.3833 383.877 78.7323C381.949 80.7343 380.02 82.7363 378.092 84.7393C377.757 85.0873 378.286 85.6183 378.622 85.2693Z" fill="#263238"/>
<path d="M347.743 163.947C347.743 163.947 349.765 172.13 350.944 173.689C352.122 175.248 376.268 174.865 377.277 173.689C378.286 172.513 380.258 163.947 380.258 163.947H347.743Z" fill="#263238"/>
<path opacity="0.2" d="M347.743 163.947C347.743 163.947 349.765 172.13 350.944 173.689C352.122 175.248 376.268 174.865 377.277 173.689C378.286 172.513 380.258 163.947 380.258 163.947H347.743Z" fill="white"/>
<path d="M364.375 88.6763C346.777 88.4693 332.343 102.568 332.137 120.165C332.025 129.714 336.202 138.811 343.518 144.95C344.864 146.06 346.92 147.403 346.874 150.187C346.872 150.272 347.015 157.151 347.015 157.151H380.532C380.532 157.151 380.674 150.004 380.674 149.923C380.674 147.472 382.571 146.415 383.968 145.311C391.382 139.367 395.746 130.417 395.864 120.915C396.07 103.317 381.973 88.8833 364.375 88.6763Z" fill="#407BFF"/>
<path opacity="0.2" d="M380.215 102.408C380.215 108.612 372.954 113.653 363.951 113.653C354.948 113.653 347.687 108.611 347.687 102.408C347.687 96.2044 354.948 91.1514 363.951 91.1514C372.955 91.1514 380.215 96.1934 380.215 102.408Z" fill="white"/>
<path d="M339.72 132.654C336.947 127.899 335.845 122.191 336.649 116.745C337.453 111.299 340.157 106.153 344.185 102.402" stroke="white" stroke-width="0.5" stroke-miterlimit="10"/>
<path d="M357.108 150.187C359.552 141.867 359.982 132.789 358.336 124.217C358.07 122.832 357.445 121.163 356.202 121.132C355.09 121.104 354.359 122.471 354.119 123.71C353.271 128.089 355.541 132.538 358.445 135.562C360.017 137.199 361.923 138.627 364.051 138.732C366.186 138.837 368.224 137.573 369.77 135.89C372.728 132.67 374.202 127.625 373.13 123.124C372.677 121.222 371.326 119.176 369.627 119.539C368.603 119.758 367.855 120.839 367.591 121.988C367.327 123.136 367.457 124.35 367.607 125.525C368.689 133.997 370.757 142.304 373.74 150.161" stroke="#263238" stroke-miterlimit="10"/>
<path d="M382.784 158.81H344.936C344.062 158.81 343.353 158.101 343.353 157.227V156.348C343.353 155.474 344.062 154.765 344.936 154.765H382.784C383.658 154.765 384.367 155.474 384.367 156.348V157.227C384.368 158.101 383.659 158.81 382.784 158.81Z" fill="#263238"/>
<path opacity="0.3" d="M382.784 158.81H344.936C344.062 158.81 343.353 158.101 343.353 157.227V156.348C343.353 155.474 344.062 154.765 344.936 154.765H382.784C383.658 154.765 384.367 155.474 384.367 156.348V157.227C384.368 158.101 383.659 158.81 382.784 158.81Z" fill="white"/>
<path d="M382.141 162.724H345.58C344.717 162.724 344.018 162.025 344.018 161.162V160.372C344.018 159.509 344.717 158.81 345.58 158.81H382.142C383.004 158.81 383.704 159.509 383.704 160.372V161.162C383.703 162.024 383.004 162.724 382.141 162.724Z" fill="#263238"/>
<path opacity="0.3" d="M382.141 162.724H345.58C344.717 162.724 344.018 162.025 344.018 161.162V160.372C344.018 159.509 344.717 158.81 345.58 158.81H382.142C383.004 158.81 383.704 159.509 383.704 160.372V161.162C383.703 162.024 383.004 162.724 382.141 162.724Z" fill="white"/>
<path d="M380.6 166.509H347.592C346.73 166.509 346.03 165.81 346.03 164.947V164.157C346.03 163.294 346.729 162.595 347.592 162.595H380.6C381.463 162.595 382.162 163.294 382.162 164.157V164.947C382.162 165.81 381.463 166.509 380.6 166.509Z" fill="#263238"/>
<path opacity="0.3" d="M380.6 166.509H347.592C346.73 166.509 346.03 165.81 346.03 164.947V164.157C346.03 163.294 346.729 162.595 347.592 162.595H380.6C381.463 162.595 382.162 163.294 382.162 164.157V164.947C382.162 165.81 381.463 166.509 380.6 166.509Z" fill="white"/>
<path d="M559.856 137.194C550.291 130.018 536.586 132.261 529.851 142.336C523.916 151.215 525.759 163.437 534.04 170.181C541.256 176.058 551.076 176.295 558.438 171.663L563.454 173.107C563.947 173.249 564.428 172.848 564.377 172.337L563.82 166.789C563.892 166.697 563.972 166.616 564.042 166.522C570.984 157.267 569.11 144.137 559.856 137.194Z" fill="#407BFF"/>
<path d="M523.249 151.78C522.901 144.978 526.227 138.098 531.773 134.144" stroke="#407BFF" stroke-miterlimit="10" stroke-linecap="round" stroke-linejoin="round"/>
<path d="M534.38 132.421C535.179 131.757 536.116 131.26 537.114 130.972" stroke="#407BFF" stroke-miterlimit="10" stroke-linecap="round" stroke-linejoin="round"/>
<path d="M546.362 164.941L535.714 157.012L538.481 153.296L545.621 158.613L555.432 146.909L558.982 149.885L546.362 164.941Z" fill="white"/>
<path d="M239.59 165.989C245.878 155.818 242.413 142.37 231.774 136.567C222.398 131.453 210.391 134.386 204.418 143.24C199.213 150.955 199.859 160.757 205.133 167.672L204.145 172.798C204.048 173.302 204.491 173.745 204.995 173.648L210.471 172.595C210.569 172.658 210.657 172.731 210.757 172.792C220.597 178.875 233.507 175.829 239.59 165.989Z" fill="#407BFF"/>
<path d="M221.776 130.84C228.519 129.883 235.671 132.577 240.106 137.746" stroke="#407BFF" stroke-miterlimit="10" stroke-linecap="round" stroke-linejoin="round"/>
<path d="M242.056 140.188C242.789 140.924 243.368 141.813 243.744 142.781" stroke="#407BFF" stroke-miterlimit="10" stroke-linecap="round" stroke-linejoin="round"/>
<path d="M220.79 164.941L210.142 157.012L212.909 153.296L220.049 158.613L229.86 146.909L233.41 149.885L220.79 164.941Z" fill="white"/>
<path d="M379.594 335.545C377.707 335.815 375.929 336.447 374.327 337.361L372.22 335.384L368.045 339.07L369.746 341.405C368.641 342.88 367.795 344.567 367.292 346.407L364.413 346.499L364.068 352.058L366.913 352.505C367.184 354.392 367.815 356.171 368.729 357.772L366.752 359.879L370.439 364.053L372.774 362.353C374.25 363.458 375.937 364.304 377.776 364.807L377.868 367.686L383.427 368.031L383.874 365.186C385.761 364.915 387.539 364.284 389.141 363.37L391.248 365.346L395.423 361.66L393.723 359.325C394.828 357.849 395.674 356.162 396.176 354.323L399.055 354.231L399.4 348.672L396.555 348.225C396.284 346.337 395.653 344.559 394.74 342.958L396.716 340.851L393.029 336.677L390.694 338.378C389.218 337.273 387.532 336.426 385.692 335.925L385.6 333.046L380.041 332.701L379.594 335.545ZM389.259 350.833C389.001 354.988 385.423 358.149 381.267 357.89C377.111 357.632 373.951 354.053 374.209 349.898C374.467 345.742 378.045 342.582 382.201 342.841C386.357 343.099 389.517 346.677 389.259 350.833Z" fill="#407BFF"/>
<path d="M533.328 258.417C533.328 258.417 529.169 256.203 527.88 254.477C526.591 252.75 526.373 252.959 526.275 252.921C526.177 252.882 520.962 252.691 520.2 252.098C519.438 251.505 519.298 250.478 519.852 250.334C520.406 250.189 524.909 250.87 526.072 250.671C527.235 250.472 525.352 250.027 522.251 249.692C519.15 249.357 516.492 248.699 516.689 247.217C516.886 245.735 524.008 247.691 525.934 247.565C527.86 247.439 524.281 247.052 521.598 246.113C518.915 245.174 516.665 244.857 517.237 243.34C517.809 241.824 526.476 245.201 527.951 244.784C529.425 244.368 527.965 243.365 526.521 242.55C525.077 241.735 522.244 241.754 521.678 240.718C521.112 239.682 521.73 239.201 522.766 239.155C523.801 239.109 528.67 240.182 529.841 241.116C529.841 241.116 530.439 239.881 531.158 240.005C531.878 240.129 532.285 243.069 533.038 244.088C533.791 245.107 536.457 252.072 536.457 252.072L533.328 258.417Z" fill="#FFB463"/>
<path d="M585.87 222.248C578.999 229.055 570.365 256.042 570.673 256.928C570.982 257.814 536.996 249.628 536.996 249.628C536.996 249.628 531.054 259.76 533.731 261.576C536.408 263.391 576.317 277.279 580.175 271.904C583.357 267.47 591.743 240.98 594.342 230.45L585.87 222.248Z" fill="#407BFF"/>
<path opacity="0.7" d="M585.87 222.248C578.999 229.055 570.365 256.042 570.673 256.928C570.982 257.814 536.996 249.628 536.996 249.628C536.996 249.628 531.054 259.76 533.731 261.576C536.408 263.391 576.317 277.279 580.175 271.904C583.357 267.47 591.743 240.98 594.342 230.45L585.87 222.248Z" fill="white"/>
<path d="M599.046 294.618C599.046 294.618 597.483 343.969 598.055 376.452C602.81 401.982 637.836 446.098 634.364 453.016C634.481 454.563 641.906 449.258 643.362 448.322C643.362 448.322 635.703 398.973 619.87 371.891C628.545 339.163 622.755 293.142 622.755 293.142L599.046 294.618Z" fill="#FFBCB4"/>
<path opacity="0.3" d="M597.981 371.126C597.981 371.126 613.055 373.351 621.113 366.661L621.501 364.762L597.928 368.121L597.981 371.126Z" fill="black"/>
<path d="M604.273 284.371C604.273 284.371 633.95 336.103 647.159 361.876C661.022 388.953 682.156 435.044 685.701 454.58C687.58 455.09 690.583 454.389 693.539 452.433C693.539 452.433 688.846 384.809 667.47 357.62C654.54 288.128 632.089 276.751 632.089 276.751L604.273 284.371Z" fill="#FFBCB4"/>
<path opacity="0.3" d="M644.792 357.313L646.614 360.816L666.17 350.972L665.515 348.002L644.792 357.313Z" fill="black"/>
<path d="M693.449 463.561H691.59L691.07 461.259L684.906 464.003H669.302C669.302 464.003 666.818 461.506 674.256 459.517C674.62 459.418 674.973 459.283 675.309 459.114C679.275 457.255 684.919 450.974 684.919 450.974H693.488C693.749 451.37 693.983 451.783 694.19 452.209C695.139 454.134 696.726 458.087 693.449 463.561Z" fill="#263238"/>
<path d="M694.177 452.3C693.046 451 687.896 456.578 684.125 458.464C680.757 460.141 676.973 460.883 675.296 459.179C679.262 457.319 685.504 449.205 685.504 449.205H692.396C692.396 449.205 693.839 451.442 694.177 452.3Z" fill="#FFBCB4"/>
<path d="M644.249 462.327H642.39L641.87 460.025L635.706 462.769H620.102C620.102 462.769 617.618 460.272 625.056 458.283C625.42 458.184 625.773 458.049 626.109 457.88C630.075 456.021 635.718 449.74 635.718 449.74H644.287C644.548 450.136 644.782 450.549 644.989 450.975C645.978 452.899 647.539 456.853 644.249 462.327Z" fill="#263238"/>
<path d="M644.977 451.066C643.846 449.766 638.696 455.344 634.925 457.23C631.557 458.907 627.773 459.649 626.096 457.945C630.062 456.086 636.304 447.971 636.304 447.971H643.196C643.196 447.971 644.574 450.208 644.977 451.066Z" fill="#FFBCB4"/>
<path d="M632.608 266.459L632.398 264.185C619.918 268.393 609.715 272.406 596.631 273.91L597.364 278.024C596.559 285.428 596.895 346.158 596.895 368.395C614.466 368.705 644.346 358.914 667.72 347.395C665.67 337.405 652.916 275.614 632.608 266.459Z" fill="#263238"/>
<path d="M632.658 298.746C630.451 313.645 629.107 328.661 628.644 343.716C628.629 344.199 629.379 344.198 629.394 343.716C629.855 328.729 631.184 313.777 633.381 298.945C633.451 298.473 632.729 298.269 632.658 298.746Z" fill="black"/>
<path d="M611.909 210.296C610.186 203.179 610.847 195.605 608.732 188.595C606.897 182.513 602.844 177.002 597.242 174.007C591.895 171.148 585.143 170.812 579.758 173.554C576.041 174.558 573.061 177.79 571.486 181.383C569.695 185.468 569.351 190.013 568.841 194.445C568.332 198.877 567.576 203.443 565.121 207.166C563.882 209.044 562.256 210.634 560.915 212.441C559.574 214.248 558.494 216.395 558.617 218.642C558.74 220.889 560.405 223.157 562.648 223.323C564.664 223.473 566.661 221.99 568.596 222.576C570.186 223.058 571.037 224.719 571.986 226.084C574.741 230.049 579.474 232.307 584.253 232.99C589.032 233.673 593.899 232.95 598.626 231.97C601.747 231.323 604.895 230.544 607.655 228.951C610.416 227.358 612.78 224.833 613.518 221.732C614.42 217.945 612.825 214.08 611.909 210.296Z" fill="#263238"/>
<path opacity="0.3" d="M585.97 252.344L582.531 242.389L580.912 251.421L585.97 252.344Z" fill="black"/>
<path d="M581.58 231.916C581.158 239.95 583.606 247.261 585.969 252.343C588.859 259.047 592.736 281.342 598.039 280.716C602.604 281.473 621.202 273.425 632.675 267.244C637.771 263.355 622.386 256.624 622.248 224.368C622.244 218.799 616.461 210.597 610.851 212.163C609.355 212.583 607.778 213.048 606.184 213.576C600.528 215.319 594.995 217.44 589.622 219.925C591.326 218.993 587.885 220.772 589.622 219.925C583.484 223.128 582.249 225.499 581.58 231.916Z" fill="#407BFF"/>
<path opacity="0.7" d="M581.58 231.916C581.158 239.95 583.606 247.261 585.969 252.343C588.859 259.047 592.736 281.342 598.039 280.716C602.604 281.473 621.202 273.425 632.675 267.244C637.771 263.355 622.386 256.624 622.248 224.368C622.244 218.799 616.461 210.597 610.851 212.163C609.355 212.583 607.778 213.048 606.184 213.576C600.528 215.319 594.995 217.44 589.622 219.925C591.326 218.993 587.885 220.772 589.622 219.925C583.484 223.128 582.249 225.499 581.58 231.916Z" fill="white"/>
<path d="M598.084 196.094C598.526 201.979 599.751 211.811 604.528 214.161C604.528 214.161 602.778 219.093 594.826 223.249C594.799 226.548 594.953 229.846 595.288 233.127C595.288 233.127 591.733 226.592 591.95 224.087C582.54 226.535 588.281 220.737 588.281 220.737C593.902 217.133 592.474 212.632 590.272 208.707L598.084 196.094Z" fill="#FFBCB4"/>
<path opacity="0.2" d="M595.024 202.856L591.154 210.745C591.776 211.599 592.085 213.252 592.085 213.252C594.161 211.891 596.919 208.185 596.296 205.662C596.048 204.658 595.616 203.706 595.024 202.856Z" fill="black"/>
<path d="M599.583 185.715C601.012 194.975 601.82 198.855 598.343 204.776C593.107 213.678 581.7 213.991 577.583 205.476C573.88 197.821 572.144 183.952 580.069 177.932C585.21 173.736 592.779 174.503 596.975 179.644C598.394 181.384 599.298 183.487 599.583 185.715Z" fill="#FFBCB4"/>
<path d="M589.884 182.086C596.868 186.58 596.692 216.808 606.388 212.907C616.084 209.006 600.02 176.898 593.054 175.805C586.088 174.712 589.884 182.086 589.884 182.086Z" fill="#263238"/>
<path d="M593.069 175.924C593.939 182.279 593.525 184.149 587.686 184.409C588.051 182.941 587.893 181.393 587.239 180.029C587.225 181.641 586.583 183.184 585.451 184.331C583.827 184.227 582.196 184.296 580.585 184.536C580.569 183.614 580.347 182.708 579.936 181.883C579.877 183.024 579.484 184.122 578.806 185.042C577.195 185.629 575.692 186.478 574.357 187.555C572.164 181.282 580.349 170.812 593.069 175.924Z" fill="#263238"/>
<path d="M602.624 192.119C602.458 193.921 601.539 195.569 600.092 196.657C598.26 197.912 596.57 195.903 596.424 193.348C596.287 191.051 597.067 187.603 599.231 187.444C601.396 187.285 602.909 189.729 602.624 192.119Z" fill="#FFBCB4"/>
<path d="M586.95 192.243C587.214 193.092 586.959 193.967 586.379 194.198C585.799 194.428 585.115 193.927 584.851 193.078C584.587 192.229 584.842 191.353 585.422 191.123C586.001 190.892 586.685 191.393 586.95 192.243Z" fill="#263238"/>
<path d="M588.02 187.675C587.907 187.719 587.779 187.718 587.666 187.659C585.902 186.734 584.438 187.623 584.421 187.633C584.204 187.765 583.93 187.697 583.811 187.471C583.693 187.246 583.774 186.953 583.993 186.816C584.069 186.769 585.906 185.652 588.096 186.8C588.314 186.915 588.395 187.2 588.277 187.437C588.22 187.551 588.126 187.633 588.02 187.675Z" fill="#263238"/>
<path d="M573.955 190.231C573.84 190.23 573.728 190.187 573.645 190.101C573.474 189.923 573.492 189.631 573.684 189.449C575.61 187.619 577.691 188.003 577.779 188.021C578.027 188.07 578.174 188.312 578.105 188.562C578.037 188.811 577.782 188.974 577.534 188.927C577.453 188.911 575.833 188.637 574.302 190.092C574.203 190.186 574.077 190.233 573.955 190.231Z" fill="#263238"/>
<path d="M580.293 192.886C580.293 192.886 579.825 196.706 578.813 199.29C578.636 199.742 578.963 200.236 579.447 200.274C580.691 200.372 581.905 199.626 581.905 199.626L580.293 192.886Z" fill="#FF7168"/>
<path d="M585.633 191.026L583.413 191.306C583.413 191.306 586.197 192.285 585.633 191.026Z" fill="#263238"/>
<path d="M578.809 194.246C579.073 195.095 578.818 195.97 578.237 196.201C577.657 196.431 576.973 195.93 576.709 195.081C576.444 194.232 576.7 193.356 577.28 193.126C577.86 192.895 578.545 193.397 578.809 194.246Z" fill="#263238"/>
<path d="M577.372 193.106L575.153 193.386C575.153 193.386 577.125 194.395 577.372 193.106Z" fill="#263238"/>
<g opacity="0.3">
<path d="M599.345 189.623C600.029 189.975 600.368 190.73 600.4 191.475C600.442 192.462 600.012 193.404 599.615 194.284C599.531 194.47 599.563 194.685 599.75 194.797C599.91 194.893 600.18 194.847 600.263 194.662C600.731 193.623 601.245 192.498 601.14 191.329C601.055 190.377 600.602 189.427 599.723 188.975C599.295 188.755 598.915 189.402 599.345 189.623Z" fill="black"/>
</g>
<path d="M582.814 202.405C583.826 203.179 585.306 204.851 585.306 204.851C585.482 204.744 585.657 204.637 585.827 204.522C588.172 203.014 588.762 201.54 588.704 200.363C588.67 199.719 588.434 199.162 588.186 198.742C587.905 198.253 587.594 197.969 587.594 197.969C586.828 199.511 584.75 201.085 583.606 201.879C583.129 202.217 582.814 202.405 582.814 202.405Z" fill="#263238"/>
<path d="M583.605 201.879L584.358 202.581C586.563 201.155 587.925 199.856 588.186 198.742C587.905 198.253 587.594 197.969 587.594 197.969C586.828 199.511 584.75 201.085 583.605 201.879Z" fill="white"/>
<path d="M585.826 204.522C588.171 203.014 588.761 201.54 588.703 200.363C587.924 200.907 587.045 201.651 586.431 202.553C585.959 203.241 585.823 203.923 585.826 204.522Z" fill="#FF3F3E"/>
<path opacity="0.3" d="M590.921 268.703L591.576 270.755C591.576 270.755 607.04 271.857 609.813 269.885C612.587 267.914 620.215 231.779 620.215 231.779C620.215 231.779 606.11 264.862 605.465 265.556C604.821 266.25 590.921 268.703 590.921 268.703Z" fill="black"/>
<g opacity="0.3">
<path d="M580.469 174.397C575.551 176.34 572.09 181.205 571.904 186.497C571.887 186.98 572.637 186.979 572.654 186.497C572.828 181.566 576.073 176.936 580.669 175.121C581.112 174.945 580.919 174.219 580.469 174.397Z" fill="black"/>
</g>
<path d="M410.833 193.543C401.097 200.033 392.921 208.231 386.468 217.53L369.575 212.156L356.206 243.613L371.801 252.047C369.583 263.141 369.359 274.72 371.443 286.235L355.743 294.358L368.535 326.054L385.475 321.005C391.966 330.741 400.164 338.919 409.462 345.369L404.088 362.264L435.545 375.63L443.978 360.039C455.077 362.254 466.654 362.48 478.168 360.396L486.291 376.096L517.988 363.305L512.939 346.365C522.675 339.874 530.852 331.676 537.302 322.379L554.194 327.75L567.564 296.295L551.971 287.862C554.186 276.766 554.411 265.188 552.326 253.674L568.026 245.551L555.234 213.855L538.294 218.904C531.802 209.167 523.605 200.987 514.308 194.538L519.68 177.644L488.222 164.278L479.79 179.871C468.693 177.655 457.116 177.428 445.602 179.513L437.479 163.813L405.781 176.605L410.833 193.543ZM504.794 252.638C514.356 276.334 502.899 303.298 479.202 312.862C455.503 322.426 428.539 310.965 418.977 287.27C409.413 263.572 420.872 236.61 444.57 227.046C468.267 217.483 495.229 228.94 504.794 252.638Z" fill="#407BFF"/>
<g opacity="0.3">
<path d="M419.749 207.065C418.617 212.12 417.792 217.661 420.134 222.282C422.998 227.932 429.252 230.137 435.625 231.862C438.369 229.974 441.352 228.345 444.57 227.046C452.018 224.04 459.788 223.114 467.239 223.989C465.243 212.185 471.949 199.632 480.499 190.689C487.415 183.455 495.614 177.426 502.727 170.438L488.224 164.276L479.792 179.869C468.695 177.653 457.118 177.426 445.604 179.511L437.481 163.811L436.188 164.333C428.658 177.67 423.095 192.118 419.749 207.065Z" fill="white"/>
</g>
<g opacity="0.3">
<path d="M508.454 316.628C509.288 305.853 508.534 294.739 505.889 284.235C501.805 296.796 492.407 307.532 479.201 312.862C479.141 312.886 479.081 312.906 479.021 312.929C476.353 319.07 472.661 324.757 468.032 329.606C452.625 345.746 429.112 352.002 411.671 365.485L435.544 375.629L443.977 360.038C455.076 362.253 466.653 362.479 478.167 360.395L486.29 376.095L493.969 372.996C500.89 354.719 506.951 336.046 508.454 316.628Z" fill="white"/>
</g>
<path d="M563.529 258.417C563.529 258.417 559.37 256.203 558.081 254.477C556.792 252.75 556.574 252.959 556.476 252.921C556.378 252.882 551.163 252.691 550.401 252.098C549.639 251.505 549.499 250.478 550.053 250.334C550.607 250.189 555.11 250.87 556.273 250.671C557.436 250.472 555.554 250.027 552.452 249.692C549.351 249.357 546.693 248.699 546.89 247.217C547.087 245.735 554.209 247.691 556.135 247.565C558.061 247.439 554.482 247.052 551.799 246.113C549.116 245.174 546.866 244.857 547.439 243.34C548.011 241.824 556.678 245.201 558.153 244.784C559.627 244.368 558.167 243.365 556.723 242.55C555.279 241.735 552.446 241.754 551.88 240.718C551.314 239.682 551.932 239.201 552.968 239.155C554.003 239.109 558.872 240.182 560.043 241.116C560.043 241.116 560.64 239.881 561.36 240.005C562.08 240.129 562.487 243.069 563.24 244.088C563.993 245.107 566.659 252.072 566.659 252.072L563.529 258.417Z" fill="#FFBCB4"/>
<path d="M614.769 212.958C617.286 215.108 621.895 220.233 621.646 223.533C620.869 233.833 611.124 263.917 607.941 268.351C604.084 273.726 566.609 263.391 563.932 261.576C561.255 259.761 567.197 249.628 567.197 249.628C567.197 249.628 597.008 253.34 596.699 252.453C596.391 251.567 602.112 228.066 606.877 220.096C611.644 212.127 612.299 210.896 614.769 212.958C614.794 212.979 614.745 212.938 614.769 212.958Z" fill="#407BFF"/>
<path opacity="0.7" d="M614.769 212.958C617.286 215.108 621.895 220.233 621.646 223.533C620.869 233.833 611.124 263.917 607.941 268.351C604.084 273.726 566.609 263.391 563.932 261.576C561.255 259.761 567.197 249.628 567.197 249.628C567.197 249.628 597.008 253.34 596.699 252.453C596.391 251.567 602.112 228.066 606.877 220.096C611.644 212.127 612.299 210.896 614.769 212.958C614.794 212.979 614.745 212.938 614.769 212.958Z" fill="white"/>
<g opacity="0.3">
<path d="M597.061 252.554C598.785 245.229 600.708 237.939 602.945 230.753C603.924 227.61 604.956 224.473 606.19 221.419C606.927 219.595 607.704 217.392 609.122 215.967C609.463 215.625 608.933 215.094 608.592 215.437C607.25 216.785 606.489 218.769 605.768 220.488C604.484 223.55 603.432 226.71 602.435 229.875C600.102 237.279 598.117 244.799 596.339 252.354C596.227 252.824 596.95 253.024 597.061 252.554Z" fill="black"/>
</g>
<g opacity="0.3">
<path d="M596.51 252.989C598.382 253.852 599.871 255.379 600.69 257.27C600.771 257.456 601.043 257.498 601.203 257.405C601.395 257.293 601.418 257.078 601.338 256.892C600.475 254.901 598.859 253.25 596.888 252.342C596.704 252.257 596.484 252.29 596.375 252.476C596.281 252.637 596.325 252.903 596.51 252.989Z" fill="black"/>
</g>
<path d="M563.438 261.811C565.874 262.949 568.528 263.715 571.087 264.513C574.837 265.682 578.64 266.759 582.508 267.465C582.98 267.551 583.182 266.828 582.707 266.742C578.926 266.052 575.209 265.006 571.541 263.869C568.961 263.07 566.271 262.31 563.817 261.163C563.382 260.96 563 261.606 563.438 261.811Z" fill="black"/>
<path d="M74.042 433.194L71.839 449.643L82.041 449.979L93.208 425.748L74.042 433.194Z" fill="#263238"/>
<path d="M73.135 447.808C74.45 449.101 77.398 449.001 78.751 448.005L78.847 446.089C79.133 444.479 79.736 443.732 81.468 444.003C82.317 444.135 83.358 445.199 84.019 446.765C85.203 449.573 86.649 450.735 86.649 450.735C86.649 450.735 94.297 454.817 97.057 455.751C98.704 456.308 100.902 457.14 102.042 458.952C102.367 459.47 102.657 460.081 102.902 460.8C103.103 461.39 103.061 462.709 103.06 462.737L83.395 462.16C83.395 462.16 81.423 460.932 80.57 460.938C79.052 460.948 78.335 462.25 78.335 462.25L71.183 462.093C71.183 462.093 71.078 460.986 70.927 459.374L70.925 459.373C70.857 458.647 70.78 457.819 70.698 456.945C70.346 453.192 70.945 448.751 70.854 447.689C70.693 445.827 73.135 447.808 73.135 447.808Z" fill="#263238"/>
<path d="M90.775 452.754C90.689 452.672 90.553 452.66 90.449 452.722C89.972 453.002 89.568 453.404 89.289 453.914C89.142 454.182 89.562 454.454 89.711 454.183C89.959 453.73 90.313 453.375 90.729 453.129C90.868 453.047 90.895 452.869 90.779 452.759C90.778 452.756 90.777 452.755 90.775 452.754Z" fill="#407BFF"/>
<path d="M89.282 451.893C89.196 451.811 89.06 451.799 88.956 451.86C88.479 452.141 88.075 452.543 87.796 453.052C87.649 453.32 88.069 453.592 88.218 453.321C88.466 452.868 88.82 452.513 89.236 452.267C89.375 452.185 89.402 452.007 89.286 451.897C89.284 451.896 89.282 451.893 89.282 451.893Z" fill="#407BFF"/>
<path d="M87.74 451.086C87.654 451.004 87.518 450.992 87.414 451.053C86.937 451.333 86.533 451.736 86.254 452.245C86.107 452.513 86.527 452.785 86.676 452.514C86.924 452.062 87.278 451.706 87.694 451.46C87.833 451.378 87.859 451.2 87.744 451.09C87.742 451.088 87.74 451.086 87.74 451.086Z" fill="#407BFF"/>
<path opacity="0.2" d="M102.533 459.94C102.663 460.226 102.788 460.527 102.901 460.858C103.102 461.448 103.06 462.766 103.059 462.795L83.394 462.218C83.394 462.218 81.422 460.99 80.569 460.996C79.051 461.006 78.334 462.308 78.334 462.308L71.182 462.151C71.182 462.151 71.077 461.043 70.926 459.432L70.924 459.431C70.912 459.304 70.899 459.159 70.886 459.026L102.533 459.94Z" fill="white"/>
<path d="M87.551 451.308C87.511 450.624 87.472 449.936 87.553 449.256C87.634 448.576 87.842 447.897 88.254 447.35C88.446 447.096 88.723 446.856 89.041 446.885C89.375 446.915 89.61 447.233 89.717 447.55C89.922 448.16 89.808 448.848 89.509 449.418C89.208 449.988 88.062 450.917 87.551 451.308Z" stroke="#407BFF" stroke-width="0.5" stroke-miterlimit="10"/>
<path d="M87.468 451.306C87.218 450.668 86.965 450.027 86.607 449.443C86.249 448.859 85.776 448.33 85.172 448.005C84.892 447.854 84.539 447.753 84.263 447.912C83.973 448.079 83.892 448.466 83.927 448.799C83.996 449.439 84.388 450.016 84.898 450.408C85.41 450.8 86.839 451.165 87.468 451.306Z" stroke="#407BFF" stroke-width="0.5" stroke-miterlimit="10"/>
<path d="M133.004 431.518L130.801 447.967L141.003 448.303L152.17 424.073L133.004 431.518Z" fill="#263238"/>
<path d="M132.096 446.132C133.411 447.425 136.358 447.325 137.712 446.329L137.808 444.413C138.094 442.803 138.697 442.056 140.429 442.327C141.278 442.459 142.319 443.523 142.98 445.089C144.164 447.897 145.61 449.059 145.61 449.059C145.61 449.059 153.258 453.141 156.018 454.075C157.665 454.632 159.863 455.464 161.003 457.276C161.328 457.794 161.618 458.405 161.864 459.124C162.065 459.714 162.023 461.033 162.022 461.061L142.357 460.484C142.357 460.484 140.385 459.256 139.532 459.262C138.014 459.272 137.297 460.574 137.297 460.574L130.145 460.417C130.145 460.417 130.04 459.31 129.889 457.698L129.887 457.697C129.819 456.971 129.742 456.143 129.66 455.269C129.308 451.516 129.907 447.075 129.816 446.013C129.655 444.151 132.096 446.132 132.096 446.132Z" fill="#263238"/>
<path d="M149.737 451.078C149.65 450.996 149.515 450.984 149.411 451.046C148.934 451.326 148.53 451.728 148.251 452.238C148.104 452.506 148.524 452.778 148.673 452.507C148.921 452.054 149.275 451.699 149.691 451.453C149.83 451.371 149.857 451.193 149.741 451.083C149.74 451.08 149.739 451.079 149.737 451.078Z" fill="#407BFF"/>
<path d="M148.243 450.217C148.157 450.135 148.021 450.123 147.917 450.184C147.44 450.465 147.036 450.867 146.757 451.376C146.61 451.644 147.03 451.916 147.179 451.645C147.427 451.192 147.781 450.837 148.197 450.591C148.336 450.509 148.362 450.331 148.247 450.221C148.247 450.221 148.245 450.218 148.243 450.217Z" fill="#407BFF"/>
<path d="M146.701 449.41C146.615 449.328 146.479 449.316 146.375 449.377C145.898 449.657 145.494 450.06 145.215 450.569C145.068 450.837 145.488 451.109 145.637 450.838C145.885 450.386 146.239 450.03 146.655 449.784C146.794 449.702 146.82 449.524 146.705 449.414C146.705 449.414 146.703 449.411 146.701 449.41Z" fill="#407BFF"/>
<path opacity="0.2" d="M161.495 458.264C161.625 458.55 161.75 458.851 161.863 459.181C162.064 459.771 162.022 461.09 162.021 461.118L142.356 460.541C142.356 460.541 140.384 459.313 139.531 459.319C138.013 459.329 137.296 460.631 137.296 460.631L130.144 460.474C130.144 460.474 130.039 459.366 129.888 457.755L129.886 457.754C129.874 457.627 129.861 457.482 129.848 457.349L161.495 458.264Z" fill="white"/>
<path d="M146.513 449.632C146.473 448.948 146.434 448.26 146.514 447.58C146.595 446.9 146.803 446.221 147.215 445.674C147.407 445.42 147.684 445.18 148.002 445.209C148.335 445.239 148.571 445.557 148.678 445.874C148.883 446.484 148.769 447.172 148.47 447.742C148.17 448.312 147.024 449.241 146.513 449.632Z" stroke="#407BFF" stroke-width="0.5" stroke-miterlimit="10"/>
<path d="M146.429 449.63C146.178 448.992 145.926 448.351 145.568 447.767C145.21 447.183 144.737 446.654 144.133 446.329C143.852 446.178 143.5 446.077 143.224 446.236C142.934 446.403 142.853 446.79 142.889 447.123C142.958 447.763 143.35 448.34 143.86 448.732C144.371 449.125 145.801 449.489 146.429 449.63Z" stroke="#407BFF" stroke-width="0.5" stroke-miterlimit="10"/>
<path d="M131.178 268.057C131.178 268.057 114.662 305.067 97.514 356.555C79.781 409.8 67.911 444.047 67.911 444.047L88.172 446.48C88.172 446.48 122.673 366.397 126.251 356.457C129.829 346.518 147.674 307.491 147.674 307.491C147.674 307.491 155.594 364.269 153.209 371.028C150.824 377.787 127.696 442.356 127.696 442.356L145.788 444.763C145.788 444.763 176.666 387.727 179.847 363.077C183.027 338.427 182.855 278.152 182.855 278.152L131.178 268.057Z" fill="#263238"/>
<path opacity="0.2" d="M147.674 307.491L160.189 302.806L152.265 312.333L150.417 328.802L147.674 307.491Z" fill="black"/>
<path d="M163.786 194.483C162.814 195.079 140.961 207.06 140.961 207.06L140.292 245.507C140.292 245.507 129.214 264.72 131.211 269.843C133.207 274.966 161.358 288.997 172.034 287.11C182.709 285.223 188.167 270.826 188.167 270.826C188.167 270.826 196.499 228.794 196.931 216.961C197.362 205.128 193.803 198.706 193.514 197.896C193.415 197.619 191.098 196.933 188.094 196.151C182.323 194.648 174.015 192.791 174.015 192.791L163.786 194.483Z" fill="#407BFF"/>
<path opacity="0.7" d="M163.786 194.483C162.814 195.079 140.961 207.06 140.961 207.06L140.292 245.507C140.292 245.507 129.214 264.72 131.211 269.843C133.207 274.966 161.358 288.997 172.034 287.11C182.709 285.223 188.167 270.826 188.167 270.826C188.167 270.826 196.499 228.794 196.931 216.961C197.362 205.128 193.803 198.706 193.514 197.896C193.415 197.619 191.098 196.933 188.094 196.151C182.323 194.648 174.015 192.791 174.015 192.791L163.786 194.483Z" fill="white"/>
<path d="M175.253 212.157C175.253 212.157 175.944 252.748 160.969 277.158L165.621 285.161L174.22 278.892C174.22 278.892 187.962 230.297 178.269 210.897L179.971 205.327L177.073 204.659L174.547 205.414L171.824 208.637L175.253 212.157Z" fill="#407BFF"/>
<path opacity="0.2" d="M158.903 201.737C159.619 202.541 169.919 210.654 169.919 210.654L175.182 204.698C175.213 204.629 171.141 212.082 171.123 212.148L169.52 212.697L158.903 201.737Z" fill="black"/>
<path opacity="0.2" d="M175.75 204.428L180.984 205.347C180.984 205.347 181.892 200.059 181.684 198.727C181.477 197.395 180.856 195.212 180.856 195.212L181.486 195.059C181.486 195.059 182.903 198.551 182.614 201.458C182.308 204.537 181.784 207.564 181.784 207.564L175.75 204.428Z" fill="black"/>
<path opacity="0.2" d="M174.539 249.758C164.511 227.313 151.973 216.215 151.973 216.215L172.402 252.479L189.587 249.035L174.539 249.758Z" fill="black"/>
<path d="M193.512 197.895C193.512 197.895 201.585 196.441 202.988 211.075C204.481 226.644 203.22 237.515 206.613 236.926C210.006 236.337 227.645 231.096 227.645 231.096L233.11 249.469C233.11 249.469 208.079 260.507 197.543 258.751C187.007 256.995 187.76 238.432 187.76 238.432L193.512 197.895Z" fill="#407BFF"/>
<path opacity="0.7" d="M193.512 197.895C193.512 197.895 201.585 196.441 202.988 211.075C204.481 226.644 203.22 237.515 206.613 236.926C210.006 236.337 227.645 231.096 227.645 231.096L233.11 249.469C233.11 249.469 208.079 260.507 197.543 258.751C187.007 256.995 187.76 238.432 187.76 238.432L193.512 197.895Z" fill="white"/>
<path d="M192.255 247.943C193.432 241.474 194.053 234.897 194.6 228.349C194.988 223.702 195.455 219 195.47 214.332C195.472 213.849 194.722 213.849 194.72 214.332C194.706 218.889 194.253 223.477 193.878 228.014C193.333 234.606 192.718 241.231 191.532 247.743C191.445 248.216 192.168 248.418 192.255 247.943Z" fill="#263238"/>
<path d="M218.378 249.973C210.293 256.571 203.74 264.552 198.811 273.362L183.352 270.044L174.189 299.119L188.759 305.265C187.745 315.304 188.541 325.602 191.382 335.645L178.143 344.206L192.224 371.243L206.828 365.304C213.428 373.388 221.408 379.944 230.217 384.87L226.9 400.33L255.974 409.49L262.119 394.924C272.162 395.936 282.459 395.141 292.501 392.301L301.062 405.539L328.1 391.458L322.161 376.854C330.245 370.254 336.799 362.273 341.726 353.465L357.184 356.78L366.348 327.706L351.781 321.561C352.793 311.52 351.997 301.223 349.156 291.181L362.395 282.62L348.314 255.583L333.71 261.522C327.11 253.437 319.129 246.88 310.322 241.955L313.638 226.496L284.563 217.336L278.419 231.903C268.377 230.89 258.081 231.684 248.039 234.526L239.478 221.287L212.439 235.369L218.378 249.973ZM306.872 294.353C317.399 314.566 309.546 339.488 289.332 350.016C269.116 360.544 244.194 352.689 233.668 332.477C223.14 312.262 230.993 287.342 251.208 276.813C271.423 266.286 296.344 274.138 306.872 294.353Z" fill="#407BFF"/>
<path opacity="0.4" d="M218.378 249.973C210.293 256.571 203.74 264.552 198.811 273.362L183.352 270.044L174.189 299.119L188.759 305.265C187.745 315.304 188.541 325.602 191.382 335.645L178.143 344.206L192.224 371.243L206.828 365.304C213.428 373.388 221.408 379.944 230.217 384.87L226.9 400.33L255.974 409.49L262.119 394.924C272.162 395.936 282.459 395.141 292.501 392.301L301.062 405.539L328.1 391.458L322.161 376.854C330.245 370.254 336.799 362.273 341.726 353.465L357.184 356.78L366.348 327.706L351.781 321.561C352.793 311.52 351.997 301.223 349.156 291.181L362.395 282.62L348.314 255.583L333.71 261.522C327.11 253.437 319.129 246.88 310.322 241.955L313.638 226.496L284.563 217.336L278.419 231.903C268.377 230.89 258.081 231.684 248.039 234.526L239.478 221.287L212.439 235.369L218.378 249.973ZM306.872 294.353C317.399 314.566 309.546 339.488 289.332 350.016C269.116 360.544 244.194 352.689 233.668 332.477C223.14 312.262 230.993 287.342 251.208 276.813C271.423 266.286 296.344 274.138 306.872 294.353Z" fill="white"/>
<g opacity="0.3">
<path d="M296.02 281.167C305.599 271.292 316.835 262.973 328.969 256.233C323.412 250.538 317.117 245.756 310.322 241.956L313.638 226.497L306.18 224.147C307.741 230.138 309.04 236.198 309.176 242.371C309.354 250.426 307.351 258.821 302.052 264.889C297.734 269.833 291.83 272.698 285.583 275.106C289.316 276.595 292.837 278.628 296.02 281.167Z" fill="white"/>
</g>
<g opacity="0.3">
<path d="M275.303 395.179C274.447 391.85 272.905 388.719 271.577 385.537C267.444 375.639 265.466 365.055 265.355 354.387C258.686 353.581 252.276 351.154 246.725 347.305C243.087 355.699 236.924 363.005 229.844 368.897C226.281 371.862 222.483 374.502 218.556 376.956C222.232 379.934 226.131 382.586 230.218 384.871L226.901 400.331L255.975 409.491L262.12 394.925C266.48 395.364 270.889 395.441 275.303 395.179Z" fill="white"/>
</g>
<path d="M175.446 184.814L160.35 176.783C160.46 177.865 160.707 179.811 161.383 181.095C167.042 191.848 163.609 196.563 163.609 196.563L174.951 204.129L178.056 196.915C176.783 194.393 175.325 188.23 175.446 184.814Z" fill="#FFB463"/>
<path opacity="0.2" d="M176.004 189.569L167.528 188.227C168.454 190.776 170.953 193.706 176.783 193.581C176.783 193.581 176.015 190.711 176.004 189.569Z" fill="black"/>
<path d="M184.973 158.328C186.899 161.575 186.554 169.95 181.106 168.756C175.659 167.563 181.663 152.745 184.973 158.328Z" fill="#263238"/>
<path d="M159.781 169.739C161.356 178.878 162.059 184.064 167.229 188.233C189.499 201.998 193.848 160.599 175.754 155.113C166.477 152.566 158.207 160.6 159.781 169.739Z" fill="#FFB463"/>
<path d="M153.807 159.744C153.807 159.744 162.118 158.578 163.517 158.473C164.916 158.368 166.338 163.345 166.14 164.966C165.942 166.586 163.75 167.297 163.809 168.836C163.879 170.153 166.086 173.999 165.3 175.774C164.402 176.485 159.461 173.533 159.461 173.533L156.568 174.591C156.568 174.591 148.27 163.474 153.807 159.744Z" fill="#263238"/>
<path d="M153.959 160.467C153.085 159.686 152.152 158.334 153.178 155.804C153.178 156.492 154.052 157.308 154.588 157.599C155.124 155.512 157.84 151.922 165.464 150.22C174.847 148.133 177.306 151.304 180.045 149.894C182.784 148.484 179.359 147.399 179.359 147.399C179.359 147.399 184.091 146.303 185.618 149.882C187.145 153.461 185.828 159.743 177.458 159.347C169.089 158.951 167.457 161.678 163.237 161.002C160.16 160.621 157.06 160.442 153.959 160.467Z" fill="#263238"/>
<path d="M156.989 177.644C158.604 182.451 166.979 185.07 165.907 177.892C165.292 170.904 154.897 169.185 156.989 177.644Z" fill="#FFB463"/>
<path d="M173.372 170.671C173.599 172.897 175.868 172.605 175.602 170.404C175.374 168.178 173.106 168.471 173.372 170.671Z" fill="#263238"/>
<path d="M182.497 170.221C182.724 172.447 184.993 172.155 184.727 169.954C184.5 167.728 182.231 168.021 182.497 170.221Z" fill="#263238"/>
<path d="M179.436 169.929C179.436 169.929 182.93 174.281 184.094 176.081C182.913 177.409 180.596 177.11 180.596 177.11L179.436 169.929Z" fill="#FF904B"/>
<path d="M170.454 166.765C170.602 166.807 170.77 166.771 170.889 166.654C172.312 165.27 173.912 165.598 173.928 165.601C175.869 164.742 172.281 163.878 170.271 166.025C170.026 166.251 170.136 166.683 170.454 166.765Z" fill="#263238"/>
<path opacity="0.2" d="M158.812 175.033C160.345 172.901 163.047 175.427 163.315 177.328" stroke="black" stroke-width="0.5" stroke-miterlimit="10" stroke-linecap="round" stroke-linejoin="round"/>
<path d="M186.136 165.7C186.461 165.601 186.55 165.132 186.273 164.927C184.355 163.411 182.425 164.068 182.335 164.086C181.795 164.263 182.069 165.118 182.612 164.929C182.908 164.595 184.607 164.918 186.136 165.7Z" fill="#263238"/>
<path d="M179.343 180.26C178.507 181.285 177.747 182.369 177.068 183.504C176.853 183.419 176.63 183.338 176.419 183.242C173.489 182.043 172.521 180.523 172.353 179.194C172.282 178.543 172.365 177.884 172.595 177.271C172.717 176.923 172.886 176.593 173.098 176.291C174.272 177.856 176.909 179.182 178.353 179.831C178.988 180.082 179.343 180.26 179.343 180.26Z" fill="#263238"/>
<path d="M178.354 179.815L177.655 180.754C174.906 179.621 173.12 178.462 172.595 177.255C172.716 176.906 172.886 176.576 173.098 176.275C174.28 177.854 176.91 179.166 178.354 179.815Z" fill="white"/>
<path d="M176.455 183.268C173.525 182.069 172.557 180.549 172.389 179.22C173.494 179.696 174.506 180.363 175.378 181.192C175.944 181.755 176.321 182.481 176.455 183.268Z" fill="#FF3F3E"/>
<path d="M328.992 379.379C333.778 374.865 338.106 369.892 341.933 364.542C342.496 363.756 341.195 363.006 340.638 363.785C336.885 369.031 332.623 373.894 327.931 378.319C327.228 378.983 328.29 380.042 328.992 379.379Z" fill="#407BFF"/>
<path d="M343.768 362.319C344.285 361.519 344.802 360.719 345.319 359.919C345.532 359.589 345.397 359.076 345.05 358.893C344.677 358.696 344.251 358.81 344.024 359.162C343.507 359.962 342.99 360.762 342.473 361.562C342.26 361.892 342.395 362.405 342.742 362.588C343.115 362.785 343.54 362.671 343.768 362.319Z" fill="#407BFF"/>
<path d="M211.402 255.866C211.402 255.866 216.002 252.533 217.256 250.257C218.51 247.981 218.804 248.194 218.915 248.132C219.026 248.07 225.222 246.977 226.033 246.142C226.845 245.308 226.842 244.058 226.156 243.978C225.471 243.897 220.206 245.457 218.784 245.412C217.362 245.367 219.537 244.524 223.185 243.61C226.833 242.696 229.898 241.469 229.417 239.732C228.936 237.994 220.755 241.512 218.434 241.68C216.113 241.848 220.323 240.794 223.372 239.227C226.421 237.66 229.055 236.909 228.12 235.193C227.185 233.477 217.394 238.946 215.564 238.694C213.734 238.441 215.312 237.002 216.901 235.79C218.49 234.578 221.877 234.131 222.381 232.8C222.885 231.469 222.067 230.997 220.823 231.114C219.579 231.231 213.942 233.319 212.699 234.629C212.699 234.629 211.781 233.253 210.941 233.521C210.102 233.789 210.104 237.367 209.373 238.709C208.642 240.051 206.613 248.811 206.613 248.811L211.402 255.866Z" fill="#FFB463"/>
<path opacity="0.2" d="M137.79 212.123C135.141 215.107 136.973 220.171 137.817 224.071C140.453 236.243 155.472 270.324 160.008 275.092C165.505 280.871 208.548 262.317 211.444 259.705C214.34 257.093 205.564 245.978 205.564 245.978C205.564 245.978 170.577 255.352 170.799 254.243C171.02 253.134 160.007 229.764 152.994 221.035C145.982 212.307 140.399 209.25 137.79 212.123C137.816 212.094 137.764 212.152 137.79 212.123Z" fill="black"/>
<path d="M207.167 244.214C207.167 244.214 172.18 253.588 172.402 252.479C172.623 251.37 161.61 227.999 154.597 219.271C147.584 210.543 140.961 207.06 140.961 207.06C136.425 210.138 133.455 215.881 136.457 223.437C141.246 235.492 156.977 266.914 161.513 271.683C167.01 277.462 210.151 260.554 213.047 257.942C215.942 255.33 207.167 244.214 207.167 244.214Z" fill="#407BFF"/>
<path opacity="0.7" d="M207.167 244.214C207.167 244.214 172.18 253.588 172.402 252.479C172.623 251.37 161.61 227.999 154.597 219.271C147.584 210.543 140.961 207.06 140.961 207.06C136.425 210.138 133.455 215.881 136.457 223.437C141.246 235.492 156.977 266.914 161.513 271.683C167.01 277.462 210.151 260.554 213.047 257.942C215.942 255.33 207.167 244.214 207.167 244.214Z" fill="white"/>
</svg>
